<svg width="140" height="127" viewBox="0 0 140 127" fill="none" xmlns="http://www.w3.org/2000/svg">
<g clip-path="url(#clip0_352_995)">
<path d="M2.18042 127C0.694277 126.338 0.203093 125.252 0.25347 123.767C0.341632 120.716 0.278659 117.655 0.278659 114.604C0.278659 106.241 5.35423 99.8431 14.12 97.1468C14.2963 97.0896 14.46 97.0325 14.7875 96.9297C11.4625 93.0909 10.8706 88.7723 12.0923 84.2137C12.8605 81.3575 14.7119 79.0725 17.3567 77.3473C22.6968 73.8512 29.8504 74.3197 34.8001 78.3413C39.7119 82.3286 41.1477 90.9659 36.0343 96.964C40.9965 98.2664 44.8505 100.906 47.7472 104.973C50.6313 100.974 54.4474 98.2664 59.5734 96.964C56.3618 93.2965 55.7069 89.1721 56.6892 84.7849C57.3567 81.803 59.1452 79.3924 61.8026 77.5529C67.0419 73.9198 74.2333 74.2511 79.2837 78.1128C84.2837 81.9401 86.0973 90.7145 80.8202 96.9754C85.795 98.2664 89.6364 100.928 92.5331 104.973C95.4172 100.94 99.2585 98.2664 104.359 96.9525C101.148 93.3765 100.518 89.2978 101.4 85.002C102.017 81.9744 103.793 79.5066 106.488 77.6215C111.853 73.8512 119.296 74.2168 124.372 78.3984C129.561 82.6713 130.405 91.3886 125.556 96.9183C125.808 97.0097 126.009 97.1125 126.236 97.181C133.805 99.5574 138.377 104.287 139.8 111.474C139.825 111.622 139.951 111.771 140.027 111.908V127.012H2.18042V127ZM5.48017 121.973H44.9764C44.9764 118.968 45.2031 116.032 44.926 113.142C44.2963 106.344 38.6162 101.603 31.0973 101.443C27.1049 101.363 23.0998 101.363 19.1074 101.465C13.0117 101.614 7.48269 105.441 6.33659 110.845C5.56833 114.433 5.73206 118.192 5.48017 121.973ZM50.2409 121.973H89.7371C89.7371 118.968 89.9638 116.032 89.6867 113.13C89.0444 106.332 83.3769 101.591 75.858 101.443C71.8656 101.363 67.8605 101.363 63.8681 101.465C57.7724 101.614 52.2434 105.453 51.0973 110.845C50.329 114.433 50.4928 118.192 50.2409 121.973ZM95.0016 121.973H134.498C134.498 119.014 134.687 116.124 134.46 113.256C133.918 106.492 128.213 101.625 120.757 101.454C116.714 101.363 112.672 101.374 108.629 101.465C102.533 101.614 97.0041 105.453 95.858 110.845C95.0898 114.433 95.2535 118.192 95.0016 121.973ZM17.13 88.1553C17.13 88.4866 17.1175 88.818 17.13 89.1379C17.2812 92.3711 19.5608 95.1017 22.9109 96.0385C26.2988 96.9982 29.989 95.8672 32.1175 93.2737C33.8555 91.1487 33.8681 88.7266 33.5658 86.293C33.0746 82.34 28.4651 79.3467 24.1703 80.0664C19.6615 80.8205 17.1175 83.7338 17.13 88.1439V88.1553ZM78.4021 87.8925C78.4021 87.8925 78.4147 87.5269 78.4021 87.1956C78.2384 83.8367 75.6943 80.969 72.2056 80.215C68.4399 79.4038 64.6489 80.9233 62.8353 83.9395C61.8026 85.6532 61.79 87.4927 61.9159 89.3549C62.1049 92.1883 63.654 94.2677 66.3996 95.5473C72.0041 98.1636 78.8807 94.3933 78.4147 87.904L78.4021 87.8925ZM123.163 87.9497C123.163 87.9497 123.175 87.5498 123.163 87.1728C122.999 83.8138 120.442 80.9461 116.954 80.2035C113.264 79.4152 109.636 80.8319 107.735 83.7338C106.601 85.459 106.563 87.3327 106.677 89.2293C106.84 92.1083 108.389 94.2334 111.185 95.5358C116.803 98.1522 123.604 94.3362 123.188 87.9382L123.163 87.9497Z" fill="#DA7C48"/>
<path d="M70.2009 0.228369C81.0195 0.228369 91.8508 0.228369 102.669 0.228369C117.506 0.228369 129.911 9.4826 132.216 22.7813C134.08 33.6121 129.823 42.4551 120.176 49.0816C119.332 49.6642 118.941 50.1898 118.954 51.1723C119.017 55.1711 118.954 59.1812 118.992 63.18C118.992 64.3453 118.677 65.3164 117.455 65.842C116.196 66.3904 115.113 66.0362 114.08 65.2593C109.496 61.809 104.911 58.3586 100.264 54.9768C99.6216 54.5084 98.6644 54.1885 97.8457 54.1771C92.6568 54.1085 87.4805 54.1542 82.2916 54.12C81.4226 54.12 80.8936 54.337 80.3772 54.9997C77.8709 58.233 75.3017 61.4434 72.745 64.6538C71.1833 66.6189 69.3067 66.6417 67.619 64.7338C64.7727 61.5119 61.9263 58.3015 59.1178 55.0568C58.5636 54.417 58.0095 54.12 57.0901 54.12C52.1782 54.1657 47.2664 54.12 42.3546 54.1771C41.6619 54.1771 40.8558 54.4741 40.3143 54.8626C35.7425 58.1873 31.2085 61.569 26.6745 64.9508C25.541 65.8077 24.3949 66.5161 22.8709 65.842C21.3974 65.1908 21.2966 63.9797 21.3092 62.6773C21.347 58.8842 21.284 55.0797 21.3596 51.2866C21.3722 50.2812 21.0699 49.6757 20.1253 49.0701C10.5032 42.9806 5.74248 31.8184 8.27396 21.4331C10.8558 10.8764 20.1379 2.65046 31.7752 0.731068C33.6014 0.434018 35.4654 0.262644 37.3168 0.251219C48.274 0.205519 59.2311 0.228369 70.2009 0.228369ZM113.513 58.3586C113.513 55.1939 113.601 52.3148 113.475 49.4586C113.4 47.7106 114.13 46.6709 115.755 45.7683C124.596 40.8099 128.941 31.1215 126.486 22.13C123.74 12.0761 114.219 5.20966 102.795 5.19823C81.0196 5.16396 59.2311 5.17538 37.4553 5.19823C35.7929 5.19823 34.0926 5.40388 32.4553 5.67808C19.9742 7.78028 11.1455 19.4452 13.4503 30.7445C14.8105 37.3938 18.614 42.535 25.012 46.0425C26.3218 46.7623 26.9138 47.6991 26.8886 49.0816C26.8382 51.675 26.8508 54.2799 26.8508 56.8734C26.8508 57.2733 26.8886 57.6617 26.9264 58.2444C27.4427 57.8902 27.7954 57.6731 28.1354 57.4218C31.3344 55.0454 34.5712 52.7033 37.7324 50.2812C38.8155 49.4472 39.9364 49.093 41.3344 49.1044C46.8382 49.1387 52.342 49.1958 57.8457 49.0816C60.075 49.0359 61.5863 49.6757 62.9087 51.3094C65.1505 54.0857 67.619 56.7134 70.075 59.5011C72.4427 56.5192 74.7601 53.663 76.9893 50.761C77.8583 49.63 78.9037 49.1044 80.4024 49.1044C86.7626 49.1273 93.1354 49.0701 99.4956 49.1501C100.453 49.1615 101.536 49.5614 102.329 50.087C104.307 51.4008 106.145 52.8746 108.047 54.2913C109.785 55.5824 111.536 56.8734 113.526 58.3586H113.513Z" fill="#DA7C48"/>
<path d="M86.0187 23.7181C86.1194 25.8317 85.2504 27.6711 83.9909 29.3734C81.1572 33.2465 77.2907 36.1827 73.2731 38.959C72.8071 39.2789 72.3285 39.5988 71.8373 39.8958C70.7416 40.5699 69.5955 40.6042 68.5249 39.9072C64.2302 37.1195 60.1874 34.0691 56.9506 30.2189C52.5426 24.9862 54.2176 19.7193 57.5804 16.6346C60.7416 13.7441 65.2252 13.1157 69.2428 14.9322C69.6962 15.1379 70.4267 15.2521 70.8045 15.0579C77.9456 11.4819 85.9431 16.6003 86.0187 23.7066V23.7181ZM64.797 18.6682C63.1471 18.9538 61.9884 19.5251 61.0816 20.5419C59.2806 22.5756 59.1295 24.7806 61.3209 27.0656C63.8398 29.6933 66.7617 32.0012 69.5703 34.389C69.797 34.5832 70.6282 34.5032 70.9053 34.2862C73.2479 32.401 75.603 30.5159 77.7945 28.4937C78.7894 27.5683 79.5829 26.4029 80.1874 25.2261C81.132 23.4096 80.1118 20.8504 78.1975 19.6622C76.3587 18.5197 74.1925 18.7482 72.3789 20.2906C70.7668 21.6501 69.6081 21.5816 67.8574 20.2677C66.9632 19.5936 65.8171 19.1938 64.7844 18.6682H64.797Z" fill="#DA7C48"/>
<path d="M121.713 29.3963C121.688 31.7498 119.925 35.6914 116.461 39.0047C115.076 40.33 113.35 40.4671 112.166 39.4045C110.995 38.3534 111.109 36.9253 112.444 35.5772C117.695 30.3103 117.507 23.3981 111.952 18.3369C110.517 17.023 110.365 15.5149 111.575 14.441C112.771 13.3784 114.295 13.4927 115.794 14.7494C119.585 17.9599 121.713 22.427 121.713 29.4077V29.3963Z" fill="#DA7C48"/>
<path d="M102.794 15.0693C101.27 15.0007 100.074 13.7897 100.187 12.4301C100.3 11.0591 101.598 10.0652 103.172 10.1337C104.633 10.2023 105.842 11.3562 105.804 12.6472C105.766 14.0525 104.406 15.1493 102.794 15.0693Z" fill="#DA7C48"/>
</g>
<defs>
<clipPath id="clip0_352_995">
<rect width="140" height="127" fill="white"/>
</clipPath>
</defs>
</svg>
