<svg width="123" height="123" viewBox="0 0 123 123" fill="none" xmlns="http://www.w3.org/2000/svg">
<g clip-path="url(#clip0_431_640)">
<path d="M121.892 107.12C120.643 100.2 116.657 95.6495 110.045 93.3594C109.847 93.29 109.668 93.2007 109.45 93.1016C113.683 87.7778 112.95 79.3807 108.419 75.2665C103.987 71.2513 97.4839 70.8845 92.7946 74.5229C90.445 76.3471 88.8885 78.7264 88.3433 81.6312C87.5799 85.7752 88.1252 89.7011 90.9308 93.1413C86.4695 94.4003 83.1286 96.9879 80.6005 100.864C78.0725 96.968 74.7216 94.4003 70.3693 93.1611C74.9793 87.1334 73.3931 78.6868 69.031 74.9988C64.6292 71.2811 58.3438 70.9638 53.7635 74.4634C51.4437 76.238 49.8773 78.548 49.3023 81.4329C48.4497 85.6562 49.0148 89.6218 51.8204 93.1512C47.3393 94.4102 44.0181 97.0176 41.4901 100.864C38.9621 96.9482 35.6012 94.4003 31.2589 93.1512C35.7202 87.3813 34.471 79.0536 30.1783 75.2169C25.8459 71.3505 19.6002 70.8944 14.9406 74.2652C12.6307 75.9307 11.0147 78.1217 10.3406 80.8777C9.26987 85.2696 9.7953 89.4335 12.7001 93.1313C12.4126 93.2305 12.2639 93.29 12.1152 93.3395C4.46161 95.937 0.0300922 102.103 0.0300922 110.154C0.0300922 113.098 0.0895757 116.032 0.0102644 118.977C-0.0293913 120.414 0.406821 121.445 1.69563 122.09H122.09V107.546C122.021 107.407 121.922 107.269 121.892 107.12ZM20.889 76.8923C24.6364 76.1984 28.6615 79.0833 29.0977 82.8803C29.3654 85.22 29.3456 87.5597 27.8287 89.602C25.9748 92.1003 22.7528 93.1908 19.7885 92.2688C16.8639 91.3568 14.8712 88.7296 14.7423 85.6166C14.7324 85.2993 14.7423 84.9821 14.7423 84.6649C14.7324 80.4217 16.9532 77.6161 20.889 76.8824V76.8923ZM39.0711 117.242H4.57067C4.79869 113.604 4.64998 109.985 5.32412 106.525C6.32543 101.33 11.1535 97.6422 16.4773 97.4935C19.967 97.3943 23.4666 97.3943 26.9563 97.4736C33.5193 97.6223 38.4763 102.183 39.0314 108.736C39.2694 111.532 39.0711 114.357 39.0711 117.242ZM54.6558 80.6101C56.242 77.7053 59.5632 76.238 62.8447 77.0212C65.8883 77.7449 68.1189 80.5109 68.2577 83.7429C68.2676 84.0601 68.2577 84.3774 68.2577 84.417C68.6641 90.6628 62.6563 94.3012 57.7588 91.7831C55.3696 90.5537 54.0114 88.5412 53.8428 85.8149C53.7338 84.0304 53.7437 82.2558 54.6459 80.6002L54.6558 80.6101ZM78.1716 117.242H43.6712C43.8992 113.604 43.7505 109.985 44.4246 106.525C45.4259 101.33 50.254 97.6422 55.5778 97.4935C59.0675 97.3943 62.5671 97.3943 66.0568 97.4736C72.6198 97.6223 77.5768 102.183 78.1319 108.736C78.3699 111.532 78.1716 114.357 78.1716 117.242ZM93.8752 80.4217C95.5408 77.6161 98.7033 76.2579 101.935 77.0212C104.979 77.735 107.219 80.501 107.358 83.7329C107.378 84.0898 107.358 84.4467 107.358 84.4765C107.725 90.633 101.787 94.3012 96.8792 91.793C94.4403 90.5438 93.0821 88.5015 92.9433 85.7256C92.8541 83.8916 92.8839 82.0872 93.8752 80.4316V80.4217ZM117.282 117.242H82.7717C82.9997 113.604 82.851 109.985 83.5251 106.525C84.5264 101.33 89.3545 97.6323 94.6783 97.4935C98.2076 97.3943 101.747 97.3844 105.276 97.4736C111.79 97.6422 116.776 102.331 117.252 108.845C117.451 111.601 117.282 114.387 117.282 117.242Z" fill="#1F4960"/>
<path d="M17.3595 47.0615C18.1824 47.6365 18.4501 48.2214 18.4401 49.1929C18.3807 52.8512 18.4302 56.4995 18.4005 60.1577C18.4005 61.4069 18.4897 62.5767 19.7686 63.2013C21.107 63.8556 22.0984 63.1617 23.0898 62.3388C27.0454 59.0771 31.0011 55.8353 35.0063 52.6232C35.4822 52.2464 36.1861 51.9688 36.7908 51.9589C41.0835 51.8994 45.3763 51.9589 49.6591 51.9094C50.472 51.9094 50.9578 52.1969 51.4337 52.8016C53.8824 55.9245 56.3708 59.0176 58.8592 62.1207C60.3364 63.9548 61.9722 63.9349 63.3304 62.0414C65.561 58.9482 67.8015 55.865 69.9925 52.752C70.4386 52.1175 70.9046 51.8994 71.6581 51.9094C76.1887 51.9391 80.7194 51.8895 85.2401 51.9589C85.9539 51.9688 86.7966 52.2762 87.3518 52.7223C91.4066 55.984 95.4118 59.2952 99.417 62.6263C100.319 63.3798 101.261 63.7168 102.371 63.1914C103.442 62.6759 103.73 61.744 103.72 60.6237C103.7 56.7672 103.749 52.9107 103.69 49.0641C103.68 48.1222 104.017 47.6067 104.751 47.0515C113.178 40.667 116.905 32.1509 115.269 21.7215C113.267 8.9226 102.431 0.00998807 89.4734 7.41472e-05C80.0155 7.41472e-05 70.5675 7.41472e-05 61.1096 7.41472e-05C51.6518 7.41472e-05 41.956 -0.0197537 32.389 0.019902C30.7731 0.019902 29.1373 0.188439 27.5411 0.475942C17.3794 2.32985 9.26976 10.261 7.00939 20.4525C4.79859 30.4457 8.95252 41.2023 17.3595 47.0615ZM28.126 5.24454C29.5636 4.97686 31.0407 4.7885 32.4981 4.7885C51.5229 4.75876 70.5576 4.74884 89.5824 4.77858C99.5657 4.79841 107.884 11.4011 110.283 21.087C112.424 29.7517 108.627 39.0807 100.904 43.8493C99.4864 44.7317 98.842 45.7231 98.9114 47.4084C99.0205 50.1645 98.9412 52.9305 98.9412 55.984C97.1963 54.5564 95.6795 53.3171 94.1527 52.068C92.4971 50.7098 90.8811 49.2822 89.1561 48.0231C88.4721 47.5175 87.5203 47.1308 86.6776 47.1209C81.1159 47.0416 75.5542 47.0912 69.9925 47.0714C68.6839 47.0714 67.7619 47.577 67.0084 48.6675C65.0653 51.4632 63.0429 54.2094 60.9709 57.0844C58.8195 54.3978 56.6682 51.8697 54.7053 49.1929C53.5453 47.6166 52.2268 47.002 50.2737 47.0416C45.4655 47.1507 40.6572 47.0912 35.8589 47.0615C34.6395 47.0615 33.658 47.3985 32.7162 48.1916C29.9601 50.5313 27.1346 52.7818 24.3389 55.0719C24.0415 55.3098 23.7342 55.5279 23.288 55.865C23.2583 55.3098 23.2186 54.9232 23.2186 54.5465C23.2186 52.0482 23.1988 49.5399 23.2484 47.0416C23.2781 45.7132 22.7626 44.811 21.6126 44.117C16.0311 40.7364 12.7 35.7794 11.5202 29.3849C9.49778 18.5094 17.2108 7.27689 28.1161 5.25445L28.126 5.24454Z" fill="#1F4960"/>
<path d="M59.6516 38.218C60.5835 38.8822 61.5848 38.8524 62.5365 38.1981C62.9628 37.9106 63.3792 37.6132 63.7956 37.296C67.315 34.6192 70.6858 31.7838 73.1643 28.0661C74.2548 26.4204 75.0182 24.6557 74.9289 22.6134C74.8595 15.7828 67.8801 10.8456 61.6443 14.2858C61.3072 14.4741 60.6628 14.3552 60.2762 14.1569C56.7666 12.412 52.8506 13.0168 50.0946 15.8026C47.16 18.7668 45.6829 23.8428 49.5394 28.879C52.3748 32.5868 55.8942 35.5214 59.6516 38.208V38.218ZM53.1481 19.56C53.9412 18.5785 54.9524 18.0233 56.3899 17.7556C57.2921 18.2612 58.2934 18.6479 59.0766 19.2923C60.6033 20.5514 61.6245 20.6207 63.0322 19.3121C64.6185 17.8349 66.512 17.6069 68.1082 18.7074C69.7836 19.8574 70.6659 22.3259 69.8431 24.0708C69.3077 25.201 68.6237 26.3312 67.7513 27.2234C65.8379 29.1765 63.7758 30.9907 61.7335 32.805C61.4857 33.0231 60.7619 33.0925 60.5637 32.9041C58.1149 30.6041 55.5571 28.3734 53.3562 25.8454C51.4429 23.6445 51.5717 21.513 53.1481 19.56Z" fill="#1F4960"/>
<path d="M98.0072 34.0344C96.8373 35.3331 96.7382 36.7111 97.7593 37.7223C98.8003 38.7534 100.307 38.6245 101.517 37.3456C104.54 34.1633 106.077 30.3662 106.107 28.0959C106.107 21.3743 104.243 17.0816 100.932 13.9884C99.6231 12.769 98.2947 12.66 97.2537 13.6811C96.2028 14.7221 96.3218 16.1695 97.5809 17.4385C102.429 22.3062 102.597 28.9783 98.0072 34.0443V34.0344Z" fill="#1F4960"/>
<path d="M89.5836 14.2958C90.9913 14.3652 92.1711 13.3143 92.2108 11.966C92.2405 10.7169 91.1896 9.61642 89.9107 9.54702C88.5327 9.47762 87.4025 10.4294 87.3034 11.7578C87.2042 13.0665 88.2551 14.2264 89.5836 14.2958Z" fill="#1F4960"/>
</g>
<defs>
<clipPath id="clip0_431_640">
<rect width="122.08" height="122.08" fill="white"/>
</clipPath>
</defs>
</svg>
