<svg width="106" height="139" viewBox="0 0 106 139" fill="none" xmlns="http://www.w3.org/2000/svg">
<g clip-path="url(#clip0_352_988)">
<path d="M0 52.1085C0.484672 50.5891 1.52011 50.13 3.11732 50.1518C10.2222 50.2284 17.338 50.1846 24.4429 50.1846H26.1613C20.5765 41.3195 19.1446 32.0499 22.2398 22.2556C24.4429 15.3035 28.7168 9.77232 34.7422 5.60756C46.4845 -2.49239 62.5668 -1.69442 73.6481 7.22537C83.3746 15.052 91.0523 32.6949 80.07 50.1737C80.6649 50.1737 81.1385 50.1737 81.6122 50.1737C88.8162 50.1737 96.0091 50.1737 103.213 50.1737C105.361 50.1737 105.989 50.7859 106 52.9174C106.011 58.8421 106.011 64.7667 106 70.7023C106 72.7902 105.284 73.4788 103.213 73.4898C101.99 73.4898 100.757 73.4898 99.3137 73.4898C99.3137 74.0473 99.3137 74.5282 99.3137 75.0092C99.3137 78.1792 99.3137 81.3383 99.3137 84.5083C99.3137 86.1699 98.5096 87.1536 97.2318 87.1209C95.932 87.0771 95.194 86.1152 95.194 84.4318C95.194 80.8683 95.194 77.2938 95.194 73.61H10.9382C10.9382 75.2387 10.9382 76.8565 10.9382 78.4634C10.9382 80.4966 10.9382 82.5298 10.9382 84.5739C10.9272 86.1371 10.1451 87.0881 8.87831 87.1209C7.6446 87.1536 6.81846 86.1917 6.80744 84.6395C6.78541 81.4695 6.80744 78.3104 6.80744 75.1404C6.80744 74.6485 6.80744 74.1675 6.80744 73.5007C5.5517 73.5007 4.42814 73.5007 3.30458 73.5007C1.14559 73.5007 0.826146 73.293 0.0110153 71.391V52.1085H0ZM101.726 54.3603H4.45017V69.2157H101.737V54.3603H101.726ZM53.0606 49.9442C63.0404 49.9442 70.9604 42.0191 71.0375 32.1155C71.1036 23.3269 64.142 14.2759 53.0606 14.2759C42.0453 14.2759 35.0176 23.2941 35.0947 32.1264C35.1828 42.041 43.0918 49.9551 53.0716 49.9551L53.0606 49.9442ZM66.5653 49.9442C69.0548 49.9442 71.5112 49.9879 73.9676 49.9004C74.4522 49.8786 75.0471 49.4413 75.3665 49.0259C80.4446 42.2924 82.1299 34.7827 80.5878 26.5188C77.7679 11.412 62.1372 1.25698 47.0573 4.76587C35.1828 7.53144 26.8883 16.3856 25.1479 28.4317C24.0353 36.1382 26.0511 43.1122 30.7987 49.2992C31.0741 49.6599 31.5588 50.0753 31.9553 50.0863C34.4888 50.1628 37.0223 50.119 39.9083 50.119C34.2575 45.6373 31.0851 40.1389 30.7436 33.2523C30.4022 26.3002 32.9136 20.4302 38.0468 15.697C46.6827 7.7282 60.2976 8.13265 68.8345 16.3966C77.1069 24.4091 78.7482 40.3357 66.5653 49.9332V49.9442Z" fill="#DA7C48"/>
<path d="M7.9293 139C6.98199 138.158 6.79473 137.098 6.79473 135.863C6.82778 122.516 6.80575 109.18 6.79473 95.8328C6.79473 95.3847 6.78372 94.9256 6.81676 94.4774C6.90488 93.3734 7.55479 92.7175 8.62327 92.5972C9.77987 92.4661 10.5399 93.1001 10.8373 94.1823C10.9695 94.6523 10.9255 95.166 10.9255 95.6689C10.9255 108.152 10.9255 120.636 10.9255 133.119C10.9255 133.654 10.9255 134.19 10.9255 134.824H95.1703C95.1703 134.299 95.1703 133.775 95.1703 133.25C95.1703 120.679 95.1703 108.098 95.1703 95.5268C95.1703 94.9474 95.2143 94.3353 95.4126 93.8106C95.7761 92.8377 96.6684 92.313 97.5826 92.6628C98.2656 92.9252 98.7723 93.7231 99.2349 94.3681C99.4332 94.6523 99.29 95.1551 99.29 95.5705C99.29 109.005 99.29 122.439 99.323 135.874C99.323 137.109 99.1248 138.158 98.1664 139H7.9293Z" fill="#DA7C48"/>
<path d="M53.1365 91.6353C54.0618 90.5531 54.6677 89.6895 55.4277 88.9899C60.4617 84.3223 68.5469 84.4972 73.4597 89.3506C78.3395 94.1713 78.7471 102.271 74.0435 107.136C67.7098 113.694 61.1557 120.045 54.6677 126.462C53.6102 127.511 52.5197 127.467 51.4402 126.407C45.0844 120.111 38.6955 113.858 32.4278 107.485C27.537 102.512 27.6913 94.4555 32.582 89.4818C37.4838 84.5082 45.514 84.2458 50.7022 88.9462C51.4732 89.6458 52.1121 90.4875 53.1365 91.6353Z" fill="#DA7C48"/>
<path d="M50.9 38.1495C51.9905 38.1495 53.0921 38.1713 54.1826 38.1495C55.4603 38.1058 56.2314 37.3843 56.2645 36.2912C56.2865 35.1325 55.5044 34.3782 54.1605 34.3017C52.7616 34.2143 51.3076 34.3454 49.9637 34.0284C47.254 33.3835 45.4364 31.0115 45.3043 28.3443C45.1721 25.6115 46.8244 23.0645 49.4901 22.1463C50.4374 21.8184 50.867 21.4358 50.8229 20.3646C50.7568 18.7249 51.7151 17.6536 53.026 17.6208C54.3258 17.5881 55.3392 18.6593 55.3171 20.2771C55.3061 21.3702 55.6696 21.7309 56.7381 21.6544C57.4541 21.5998 58.2031 21.6216 58.9081 21.7637C60.1308 22.0042 60.8909 22.9771 60.8138 24.0483C60.7256 25.207 59.8114 26.0925 58.5116 26.1253C56.4187 26.1799 54.3148 26.1362 52.2219 26.1471C50.6577 26.1471 49.8976 26.7483 49.8646 27.9726C49.8426 29.1641 50.6026 29.8637 52.1117 29.973C52.9268 30.0277 53.753 29.973 54.5681 29.9949C57.7075 30.0495 60.1418 32.1374 60.7477 35.2746C61.2764 38.0183 59.547 41.1009 56.7271 42.0956C55.6366 42.4782 55.2511 42.9592 55.2951 44.0851C55.3502 45.681 54.3148 46.7741 53.015 46.7523C51.7592 46.7304 50.7348 45.6701 50.8119 44.1507C50.878 42.7843 50.2832 42.5219 49.1155 42.6094C48.4877 42.6531 47.8378 42.5766 47.2209 42.4673C45.9872 42.2486 45.2272 41.3086 45.3043 40.2155C45.3924 39.0458 46.2956 38.2151 47.6065 38.1713C48.697 38.1385 49.7985 38.1713 50.889 38.1713L50.9 38.1495Z" fill="#DA7C48"/>
</g>
<defs>
<clipPath id="clip0_352_988">
<rect width="106" height="139" fill="white"/>
</clipPath>
</defs>
</svg>
