<svg width="122" height="123" viewBox="0 0 122 123" fill="none" xmlns="http://www.w3.org/2000/svg">
<g clip-path="url(#clip0_431_654)">
<path d="M8.55527 81.0533C7.32035 81.0533 6.47748 80.034 6.46768 78.5149C6.45788 76.4273 6.45788 74.3397 6.46768 72.2619V68.4885H3.5078C1.43982 68.4885 1.04778 68.2337 0.273508 66.4009L0.253906 48.5339C0.704748 47.0932 1.62603 46.4855 3.27258 46.4855C5.94823 46.5149 10.6821 46.5247 17.8465 46.5247C21.6493 46.5247 35.7528 46.5149 35.7528 46.5149C30.7543 38.3116 29.6174 29.7162 32.3715 20.9444C34.361 14.613 38.2422 9.40871 43.9071 5.46875C48.7978 2.04824 54.6097 0.244873 60.7157 0.244873C67.6743 0.244873 74.4467 2.62649 79.7882 6.95849C84.7083 10.9475 88.4032 17.0044 89.9125 23.5612C91.167 29.0105 91.4905 37.3805 85.9432 46.5051C85.9432 46.5051 115.444 46.5051 118.433 46.5051C120.54 46.5051 121.217 47.1814 121.226 49.2788C121.236 54.7477 121.236 60.2068 121.226 65.6757C121.226 67.7143 120.462 68.4787 118.433 68.4983H115.111V72.3207C115.111 74.3495 115.111 76.3783 115.111 78.4169C115.111 80.0536 114.307 81.0729 113.033 81.0729C111.622 81.0337 110.857 80.034 110.857 78.3482C110.857 76.0156 110.857 73.6928 110.857 71.3308V68.6257H10.7507V74.4279C10.7507 75.7804 10.7507 77.1329 10.7507 78.4855C10.7409 80.0438 9.92739 81.0435 8.63368 81.0729H8.57487L8.55527 81.0533ZM116.836 64.0585V50.8567H4.80152V64.0585H116.836ZM60.8529 4.48866C59.0005 4.48866 57.1579 4.70428 55.3644 5.12572C44.505 7.67395 37.0857 15.7499 35.5077 26.7465C34.5179 33.6365 36.2428 40.0463 40.6336 45.7995C40.8982 46.1523 41.2805 46.4267 41.5059 46.4267C42.682 46.4561 43.8483 46.4659 45.0636 46.4659H48.0921C43.0446 42.2319 40.4474 37.2237 40.1534 31.1667C39.8397 24.7569 42.1135 19.2488 46.9062 14.7894C50.6207 11.3297 55.5114 9.42832 60.6667 9.42832C66.2042 9.42832 71.4378 11.5649 75.4072 15.4461C79.4844 19.435 81.7386 25.3842 81.4347 31.3529C81.1407 37.1355 78.4455 42.4181 73.8391 46.2895H76.6911C77.7692 46.2895 78.8473 46.2895 79.9254 46.2503C80.2782 46.2405 80.7683 45.8779 81.0133 45.5446C85.5609 39.4681 87.1487 32.5584 85.7471 24.9921C83.5811 13.3095 72.8786 4.48866 60.8627 4.48866H60.8529ZM60.7843 13.8877C55.1683 13.8877 51.4636 16.436 49.3466 18.5726C46.2887 21.65 44.5638 25.8546 44.603 30.0984C44.6814 39.174 51.7968 46.2895 60.8039 46.2895C69.8207 46.2895 76.9361 39.174 77.0047 30.0984C77.0341 25.8448 75.3092 21.6402 72.2513 18.5628C70.1343 16.436 66.4394 13.8877 60.8039 13.8877H60.7843Z" fill="#1F4960"/>
<path d="M60.7166 0.490186C67.4596 0.490186 74.2026 2.74439 79.6323 7.1548C88.5315 14.3781 95.549 30.6378 85.5128 46.7504H86.9242C90.5407 46.7504 97.6954 46.7504 104.507 46.7504C110.113 46.7504 115.474 46.7504 118.454 46.7504C120.414 46.7504 120.992 47.3091 121.002 49.2791C121.012 54.7382 121.012 60.2071 121.002 65.6662C121.002 67.5871 120.345 68.2242 118.454 68.2438C118.032 68.2438 117.611 68.2438 117.17 68.2438C116.454 68.2438 115.709 68.2438 114.886 68.2438C114.886 68.7633 114.886 69.2043 114.886 69.6453C114.886 72.566 114.886 75.4867 114.886 78.4073C114.886 79.9069 114.171 80.8184 113.053 80.8184C113.034 80.8184 113.004 80.8184 112.985 80.8184C111.799 80.7792 111.123 79.8971 111.123 78.3387C111.123 75.0456 111.123 71.7623 111.123 68.3614H10.5066C10.5066 69.861 10.5066 71.3507 10.5066 72.8404C10.5066 74.7222 10.5066 76.5942 10.5066 78.4661C10.4968 79.9069 9.7813 80.7792 8.62479 80.8086C8.60519 80.8086 8.58559 80.8086 8.56599 80.8086C7.46828 80.8086 6.73322 79.9265 6.73322 78.5152C6.71362 75.5945 6.73322 72.6738 6.73322 69.7531C6.73322 69.3023 6.73322 68.8515 6.73322 68.2438C6.02755 68.2438 5.37089 68.2438 4.72403 68.2438C4.3222 68.2438 3.92036 68.2438 3.52832 68.2438C1.54854 68.2438 1.25452 68.0576 0.519448 66.3032V48.5244C0.960488 47.1523 1.88177 46.7112 3.2931 46.7112C3.3127 46.7112 3.34211 46.7112 3.36171 46.7112C6.41959 46.7406 12.0649 46.7504 17.8768 46.7504C24.4336 46.7504 31.1865 46.7406 34.6364 46.7406H36.2045C31.0885 38.5667 29.7849 30.0203 32.6174 20.9937C34.6364 14.5839 38.5371 9.48741 44.0648 5.64546C49.0535 2.17594 54.9046 0.480385 60.746 0.480385M45.0449 46.7112C46.2308 46.7112 47.4658 46.7112 48.7791 46.7112C43.6042 42.5753 40.7129 37.5082 40.3993 31.167C40.0857 24.7572 42.3791 19.3471 47.0737 14.9857C50.8863 11.4378 55.7671 9.69323 60.6676 9.69323C65.9208 9.69323 71.2035 11.6926 75.2317 15.6424C82.798 23.0323 84.3073 37.714 73.1539 46.5642C74.33 46.5642 75.5061 46.574 76.6724 46.574C77.7603 46.574 78.8384 46.5642 79.9165 46.525C80.3576 46.5054 80.9064 46.1036 81.1906 45.7213C85.8363 39.5174 87.3848 32.5881 85.9735 24.9728C83.7389 12.9079 72.7129 4.27333 60.844 4.27333C59.0014 4.27333 57.149 4.47915 55.2967 4.91039C44.4275 7.45863 36.8514 15.6228 35.2538 26.7272C34.2345 33.8329 36.0771 40.2622 40.4287 45.9664C40.6835 46.2996 41.1246 46.6818 41.4872 46.6916C42.6535 46.721 43.8198 46.7308 45.0351 46.7308M60.795 46.5348C69.9294 46.5348 77.1723 39.2331 77.2409 30.0987C77.2997 21.9934 70.9291 13.6528 60.795 13.643C50.7197 13.643 44.2903 21.964 44.3589 30.0987C44.4373 39.2331 51.6703 46.5348 60.8048 46.5348M4.55742 64.3038H117.082V50.612H4.55742V64.3038ZM60.7166 0.0001411C54.5616 0.0001411 48.7007 1.81331 43.7512 5.25342C38.0373 9.22279 34.1267 14.4761 32.1175 20.8565C29.3831 29.5695 30.4514 38.106 35.3028 46.2604H34.607C33.1564 46.2604 31.1179 46.2604 28.7656 46.2604C25.5117 46.2604 21.6502 46.2604 17.8474 46.2604C10.683 46.2604 5.93934 46.2506 3.34211 46.2212H3.2637C2.07779 46.2212 0.627258 46.4662 0.0196018 48.3676L0 48.4362V66.3816L0.0392036 66.4698C0.852678 68.3908 1.34272 68.7045 3.49892 68.7045H4.69463H5.65512H6.21377V68.7829V69.7237V72.2622C6.21377 74.34 6.21377 76.408 6.21377 78.4858C6.21377 80.1519 7.15466 81.2692 8.53658 81.2692H8.60519C10.0459 81.23 10.9476 80.1421 10.9574 78.4367C10.9672 77.0744 10.9672 75.7121 10.9672 74.3498V72.8012V69.7041V68.8123H110.584V71.2723C110.584 73.6343 110.584 75.9669 110.584 78.2897C110.584 80.1029 111.466 81.2104 112.926 81.2594H113.014C114.425 81.2594 115.337 80.1225 115.337 78.3681C115.337 76.31 115.337 74.2518 115.337 72.1838V69.6061V68.7241V68.7045H116.062H117.131C117.562 68.7045 117.993 68.7045 118.414 68.7045C120.59 68.6848 121.443 67.8322 121.453 65.6368C121.463 60.2659 121.463 54.7578 121.453 49.2399C121.453 47.0151 120.649 46.231 118.414 46.2212C115.445 46.2212 110.074 46.2212 104.468 46.2212H93.0497H86.885H86.3459C91.6972 37.1652 91.364 28.8834 90.1193 23.4635C88.5903 16.8577 84.8758 10.7615 79.9067 6.73336C74.526 2.36216 67.6948 -0.0390625 60.6872 -0.0390625L60.7166 0.0001411ZM45.0449 46.2212C44.0746 46.2212 42.8005 46.2212 41.5166 46.182C41.399 46.182 41.0854 45.9762 40.8305 45.6527C36.4887 39.9584 34.7736 33.6074 35.7537 26.786C37.312 15.8972 44.6627 7.88987 55.4241 5.37103C57.198 4.9594 59.0308 4.74378 60.8538 4.74378C72.7619 4.74378 83.3566 13.4666 85.503 25.0414C86.8948 32.5391 85.3168 39.39 80.8182 45.4077C80.583 45.7213 80.1518 46.0056 79.9165 46.0154C78.9854 46.0448 77.9858 46.0644 76.6822 46.0644C76.104 46.0644 75.5159 46.0644 74.9279 46.0644C74.7809 46.0644 74.6436 46.0644 74.4966 46.0644C78.8482 42.1832 81.3867 37.0181 81.6807 31.3826C81.9943 25.3355 79.7107 19.3177 75.5845 15.2797C71.5662 11.3594 66.2737 9.19339 60.6774 9.19339C55.4535 9.19339 50.504 11.1242 46.7405 14.6231C41.889 19.1315 39.5956 24.7082 39.9093 31.1964C40.2033 37.126 42.6633 42.0558 47.4364 46.231C47.2305 46.231 47.0247 46.231 46.8189 46.231C46.2112 46.231 45.6232 46.231 45.0449 46.231V46.2212ZM60.795 46.0448C51.9252 46.0448 44.9175 39.0371 44.8391 30.0987C44.7999 25.9137 46.5053 21.7777 49.5141 18.7493C51.6017 16.6519 55.2477 14.1428 60.7852 14.1428C66.3423 14.1428 69.9882 16.6421 72.066 18.7395C75.0749 21.7679 76.7802 25.9137 76.7508 30.0987C76.6822 39.0371 69.6746 46.0448 60.795 46.0448ZM5.04746 51.102H116.591V63.8138H5.04746V51.102Z" fill="#1F4960"/>
<path d="M7.65513 121.835L7.58652 121.776C6.59663 120.894 6.45942 119.777 6.46922 118.708C6.48882 109.682 6.48882 104.448 6.47902 97.4503V88.5903C6.47902 88.2571 6.47902 87.9239 6.49862 87.5906C6.58683 86.4733 7.26309 85.7579 8.37059 85.6402C8.4686 85.6304 8.56661 85.6206 8.66462 85.6206C9.64471 85.6206 10.3798 86.2283 10.664 87.277C10.7718 87.6494 10.762 88.0513 10.7522 88.4335V88.7177V117.523H110.868V110.211C110.868 102.674 110.868 97.911 110.868 88.5903C110.868 88.1003 110.898 87.473 111.104 86.9242C111.407 86.1107 112.054 85.6108 112.799 85.6108C113.005 85.6108 113.211 85.65 113.417 85.7285C114.063 85.9833 114.544 86.6693 114.955 87.277L115.034 87.3946C115.21 87.6494 115.181 87.9925 115.151 88.3159C115.142 88.4237 115.132 88.5315 115.132 88.6393V96.0978C115.132 103.782 115.132 109.143 115.161 118.738C115.161 119.757 115.034 120.914 114.024 121.806L113.956 121.864H7.65513V121.835Z" fill="#1F4960"/>
<path d="M112.788 85.8167C112.954 85.8167 113.131 85.8461 113.307 85.9147C113.925 86.1598 114.405 86.8948 114.817 87.4927C114.993 87.7475 114.866 88.2278 114.866 88.6002C114.866 100.989 114.866 106.32 114.895 118.709C114.895 119.845 114.709 120.816 113.837 121.59H7.7418C6.86952 120.816 6.7029 119.836 6.7029 118.699C6.7323 106.399 6.7127 101.145 6.7029 88.8452C6.7029 88.4238 6.6931 88.0121 6.7225 87.5907C6.80091 86.5714 7.38896 85.9736 8.37885 85.8657C8.46706 85.8559 8.55527 85.8461 8.64348 85.8461C9.55496 85.8461 10.1528 86.4048 10.4076 87.3261C10.5253 87.7573 10.486 88.2376 10.486 88.6884C10.486 100.195 10.486 104.654 10.486 116.16C10.486 116.65 10.486 117.15 10.486 117.728H111.092C111.092 117.238 111.092 116.758 111.092 116.278C111.092 104.683 111.092 100.146 111.092 88.5512C111.092 88.0219 111.131 87.4535 111.308 86.9732C111.573 86.2676 112.131 85.8167 112.768 85.8167M112.788 85.3267C111.955 85.3267 111.2 85.9049 110.867 86.8066C110.651 87.3947 110.622 88.0513 110.622 88.561C110.622 97.7444 110.622 102.508 110.622 109.849V116.288V117.248H10.9859V114.494C10.9859 104.193 10.9859 99.6262 10.9859 88.6884V88.414C10.9957 88.0121 11.0055 87.6005 10.8879 87.1889C10.5645 86.0226 9.75098 85.3561 8.65328 85.3561C8.55527 85.3561 8.44746 85.3561 8.33965 85.3757C7.11454 85.5129 6.35007 86.3068 6.25206 87.5515C6.22266 87.9043 6.22266 88.2474 6.23246 88.5806V88.8354V97.3426C6.23246 104.389 6.23246 109.623 6.22266 118.689C6.22266 119.767 6.35987 120.992 7.42817 121.943L7.56538 122.07H114.042L114.18 121.953C115.258 121.002 115.405 119.777 115.405 118.699C115.375 109.015 115.375 103.645 115.375 95.8431V88.5904C115.375 88.4924 115.375 88.3944 115.395 88.2866C115.424 87.9337 115.463 87.5319 115.238 87.1987L115.15 87.0811C114.709 86.444 114.219 85.7285 113.503 85.4541C113.278 85.3659 113.033 85.3169 112.798 85.3169L112.788 85.3267Z" fill="#1F4960"/>
<path d="M60.8236 111.985C60.3336 111.985 59.8435 111.75 59.3731 111.279L55.7075 107.624C52.091 104.027 48.3471 100.302 44.7207 96.5779C40.8984 92.6575 40.9474 86.2379 44.8384 82.249C46.7887 80.2496 49.4154 79.1421 52.2184 79.1421C54.7863 79.1421 57.2463 80.0928 59.1477 81.8177C59.5495 82.1804 59.9023 82.6018 60.314 83.082C60.4806 83.2781 60.657 83.4839 60.853 83.7093C61.0196 83.5035 61.1764 83.3173 61.3235 83.1409C61.7155 82.6508 62.0585 82.2294 62.4604 81.8569C64.3225 80.1124 66.7924 79.1519 69.3994 79.1519C72.1731 79.1519 74.7605 80.2104 76.7011 82.1412C80.592 86.0125 80.7978 92.5007 77.1519 96.2937C73.506 100.096 69.7032 103.87 66.0279 107.516C64.7538 108.78 63.4797 110.044 62.2153 111.309C61.7743 111.75 61.3039 111.975 60.8334 111.975L60.8236 111.985Z" fill="#1F4960"/>
<path d="M52.2188 79.3973C54.6396 79.3973 57.0605 80.2597 58.9814 82.0141C59.5793 82.5532 60.0595 83.2098 60.8632 84.1017C61.5787 83.2588 62.0393 82.5924 62.6274 82.0435C64.5091 80.2793 66.9496 79.4071 69.3998 79.4071C71.9872 79.4071 74.5845 80.3872 76.525 82.3277C80.2886 86.0717 80.6022 92.3639 76.9759 96.1372C72.095 101.234 67.0378 106.164 62.0393 111.152C61.6375 111.554 61.2356 111.75 60.824 111.75C60.4124 111.75 59.9713 111.534 59.5499 111.113C54.6494 106.222 49.7294 101.371 44.8975 96.4214C41.134 92.5599 41.2418 86.2971 45.0151 82.4355C46.9753 80.4264 49.602 79.4071 52.2188 79.4071M52.2188 78.9072C49.3471 78.9072 46.6617 80.0343 44.6623 82.0827C40.6831 86.1599 40.6341 92.7461 44.5447 96.7547C48.1808 100.479 51.9248 104.203 55.5511 107.81C56.7664 109.025 57.9915 110.241 59.2068 111.456C59.7263 111.975 60.2751 112.24 60.8338 112.24C61.3924 112.24 61.9021 111.995 62.3921 111.505C63.6565 110.241 64.9208 108.986 66.1949 107.722C69.88 104.066 73.6828 100.293 77.3385 96.4802C81.0727 92.5893 80.857 85.9443 76.8779 81.9847C74.8981 80.0147 72.242 78.9268 69.4096 78.9268C66.7339 78.9268 64.2151 79.9069 62.3039 81.6907C61.8923 82.0729 61.5493 82.5042 61.1474 83.004C61.0592 83.1118 60.9612 83.2294 60.873 83.347C60.7554 83.2098 60.6378 83.0726 60.53 82.9452C60.1085 82.4551 59.7459 82.0239 59.3343 81.6515C57.3937 79.8873 54.8749 78.9072 52.2482 78.9072H52.2188Z" fill="#1F4960"/>
<path d="M60.7633 43.8397C60.1557 43.8299 59.5872 43.5751 59.1756 43.134C58.7149 42.6342 58.4797 41.9481 58.5091 41.1837C58.5287 40.7132 58.4601 40.3996 58.3033 40.2232C58.1563 40.0762 57.9113 40.0075 57.529 40.0075C57.431 40.0075 57.333 40.0075 57.2252 40.0174C57.1076 40.0174 56.99 40.0271 56.8626 40.0271C56.4411 40.0271 55.9707 39.9781 55.4218 39.8801C54.1869 39.6547 53.3832 38.6942 53.4714 37.5475C53.5597 36.3224 54.5005 35.4795 55.8139 35.4305C56.2059 35.4207 56.5979 35.4109 56.99 35.4109H58.6463H58.8325H60.6653C61.0573 35.4109 61.4396 35.4109 61.8316 35.4109C62.8509 35.3815 63.4782 34.8327 63.4978 33.9408C63.5174 33.0097 62.8901 32.4216 61.812 32.353C61.4004 32.3236 60.9887 32.3236 60.5771 32.3236C59.695 32.3236 58.7835 32.304 57.9309 32.0982C55.3924 31.4906 53.6087 29.2854 53.4812 26.6293C53.3538 23.9439 54.9612 21.5427 57.4702 20.6704C58.2445 20.4057 58.5581 20.1509 58.5189 19.2688C58.4797 18.426 58.7247 17.6811 59.205 17.1715C59.6068 16.7402 60.1655 16.4952 60.7731 16.4756C61.42 16.4756 61.9688 16.701 62.3805 17.1224C62.8705 17.6223 63.1351 18.3476 63.1253 19.1806C63.1253 19.6217 63.1841 19.8961 63.3213 20.0333C63.439 20.1509 63.635 20.2097 63.929 20.2097C63.9976 20.2097 64.076 20.2097 64.1446 20.2097C64.3602 20.1901 64.5857 20.1803 64.8111 20.1803C65.3011 20.1803 65.7716 20.2195 66.2028 20.3077C67.4083 20.543 68.2316 21.5329 68.1434 22.6796C68.0552 23.9047 67.0947 24.7867 65.801 24.826C65.0071 24.8456 64.2132 24.8456 63.4194 24.8456H60.038C58.3719 24.8456 58.1367 25.6198 58.1269 26.2863C58.1073 27.2762 58.7051 27.7956 59.9596 27.8838C60.2537 27.9034 60.5575 27.9132 60.8515 27.9132H61.8708H62.1942C65.1933 27.9622 67.5063 29.9518 68.0846 32.9803C68.5942 35.6658 66.8791 38.606 64.2524 39.5371C63.3311 39.8605 63.0763 40.2232 63.1057 41.1347C63.1351 41.9481 62.8803 42.6734 62.3903 43.1732C61.9688 43.6045 61.4102 43.8397 60.8123 43.8397H60.7633Z" fill="#1F4960"/>
<path d="M60.8135 16.7304C61.9798 16.7304 62.8815 17.7104 62.8618 19.1806C62.852 20.1019 63.1265 20.4645 63.9203 20.4645C63.9988 20.4645 64.0772 20.4645 64.1556 20.4645C64.3712 20.4449 64.5868 20.4351 64.8024 20.4351C65.2533 20.4351 65.7041 20.4743 66.1451 20.5527C67.2625 20.7683 67.9583 21.67 67.8897 22.6599C67.8113 23.7282 66.9782 24.5417 65.7825 24.5711C64.9886 24.5907 64.1948 24.5907 63.3911 24.5907C62.509 24.5907 61.6269 24.5907 60.7351 24.5907C60.4998 24.5907 60.2646 24.5907 60.0196 24.5907C58.5887 24.5907 57.8928 25.1493 57.8634 26.2764C57.8438 27.3839 58.5299 28.021 59.9216 28.119C60.2254 28.1386 60.5292 28.1484 60.8233 28.1484C61.1565 28.1484 61.4995 28.1484 61.8328 28.1484C61.9406 28.1484 62.0582 28.1484 62.166 28.1484C65.0377 28.1974 67.2723 30.1184 67.8211 33.0096C68.3013 35.5383 66.7234 38.3805 64.1458 39.292C63.1461 39.6449 62.803 40.0859 62.8324 41.1346C62.8815 42.5851 61.9504 43.5946 60.7841 43.5946C60.7743 43.5946 60.7547 43.5946 60.7449 43.5946C59.5981 43.575 58.6671 42.5949 58.7357 41.1934C58.7945 40.0663 58.3534 39.7625 57.5008 39.7625C57.4027 39.7625 57.2949 39.7625 57.1871 39.7723C57.0695 39.7723 56.9617 39.7821 56.8441 39.7821C56.3835 39.7821 55.913 39.7233 55.4524 39.6351C54.3253 39.4292 53.6294 38.5668 53.698 37.5573C53.7764 36.4694 54.5997 35.7049 55.8052 35.6755C56.1874 35.6657 56.5795 35.6559 56.9617 35.6559C57.5792 35.6559 58.1868 35.6559 58.8043 35.6559C59.4217 35.6559 60.0294 35.6559 60.6468 35.6559C61.0291 35.6559 61.4211 35.6559 61.8034 35.6363C62.9697 35.5971 63.6851 34.9306 63.7047 33.9309C63.7243 32.8626 63.0089 32.1668 61.7838 32.0884C60.4998 32.01 59.1767 32.1276 57.9418 31.8335C55.4622 31.2357 53.796 29.0501 53.6784 26.5901C53.5608 24.0614 55.0701 21.719 57.5008 20.8761C58.373 20.5723 58.7553 20.2195 58.7161 19.2394C58.6475 17.73 59.5393 16.7402 60.7253 16.7107C60.7449 16.7107 60.7547 16.7107 60.7743 16.7107M60.8135 16.2403H60.7547C60.0882 16.2599 59.4707 16.5343 59.0199 17.0048C58.5005 17.5634 58.226 18.3769 58.2652 19.2786C58.2946 19.9646 58.1378 20.1705 57.3733 20.4351C54.7565 21.3466 53.0904 23.836 53.2178 26.6391C53.3452 29.4127 55.2073 31.6963 57.8536 32.3334C58.7455 32.549 59.6668 32.5588 60.5586 32.5686C60.9703 32.5686 61.3721 32.5686 61.7739 32.598C62.3326 32.6274 63.2539 32.8528 63.2343 33.9309C63.2147 34.6856 62.6952 35.1364 61.8034 35.156C61.4211 35.1658 61.0389 35.1756 60.6566 35.1756C60.3528 35.1756 60.049 35.1756 59.7354 35.1756C59.4315 35.1756 59.1179 35.1756 58.8141 35.1756H58.324C58.177 35.1756 58.0398 35.1756 57.8928 35.1756C57.589 35.1756 57.2753 35.1756 56.9715 35.1756C56.5795 35.1756 56.1874 35.1756 55.7954 35.1952C54.3547 35.2442 53.3158 36.1851 53.2178 37.5377C53.1296 38.8118 54.0116 39.8801 55.374 40.1251C55.9326 40.2231 56.4129 40.2721 56.8539 40.2721C56.9813 40.2721 57.1087 40.2721 57.2361 40.2623C57.3341 40.2623 57.4322 40.2525 57.5204 40.2525C57.834 40.2525 58.03 40.3015 58.1182 40.3995C58.226 40.5171 58.275 40.7818 58.2554 41.1738C58.2162 41.9971 58.471 42.7517 58.9807 43.3006C59.4413 43.7906 60.0686 44.0749 60.7449 44.0847C61.4603 44.0847 62.0778 43.82 62.5482 43.3398C63.0873 42.7811 63.3617 41.9971 63.3323 41.115C63.3029 40.3113 63.4989 40.0467 64.3124 39.7527C67.0468 38.7824 68.8404 35.7147 68.3014 32.9116C67.7035 29.7655 65.3023 27.7074 62.1758 27.6486C62.0582 27.6486 61.9504 27.6486 61.8328 27.6486C61.6661 27.6486 61.4897 27.6486 61.3231 27.6486C61.1565 27.6486 60.9899 27.6486 60.8233 27.6486C60.5292 27.6486 60.245 27.6486 59.951 27.6191C58.4906 27.5211 58.3338 26.8057 58.3436 26.2764C58.3534 25.659 58.5691 25.0807 60.0098 25.0709H60.7155H62.0386H63.3715C64.1752 25.0709 64.969 25.0709 65.7727 25.0513C67.1742 25.0219 68.2523 24.0222 68.3504 22.6795C68.4386 21.4152 67.5467 20.3077 66.2138 20.0529C65.7629 19.9646 65.2827 19.9254 64.773 19.9254C64.5476 19.9254 64.3124 19.9254 64.087 19.9548C64.0184 19.9548 63.9498 19.9548 63.8811 19.9548C63.7243 19.9548 63.5283 19.9352 63.4401 19.8568C63.3911 19.8078 63.3029 19.651 63.3127 19.1708C63.3225 18.2789 63.0383 17.485 62.4992 16.9362C62.0386 16.4755 61.4309 16.2207 60.7743 16.2207L60.8135 16.2403Z" fill="#1F4960"/>
</g>
<defs>
<clipPath id="clip0_431_654">
<rect width="121.482" height="122.08" fill="white"/>
</clipPath>
</defs>
</svg>
