<svg width="41" height="40" viewBox="0 0 41 40" fill="none" xmlns="http://www.w3.org/2000/svg">
<path d="M20.2207 11.8072C22.8713 11.8072 23.2328 11.8072 24.3171 11.8072C25.2809 11.8072 25.7629 12.0482 26.1243 12.1687C26.6062 12.4096 26.9677 12.5301 27.3291 12.8916C27.6906 13.253 27.9315 13.6145 28.052 14.0964C28.1725 14.4578 28.293 14.9398 28.4135 15.9036C28.4135 16.988 28.4135 17.2289 28.4135 20C28.4135 22.7711 28.4135 23.0121 28.4135 24.0964C28.4135 25.0602 28.1725 25.5422 28.052 25.9036C27.8111 26.3855 27.6906 26.747 27.3291 27.1084C26.9677 27.4699 26.6062 27.7108 26.1243 27.8313C25.7629 27.9518 25.2809 28.0723 24.3171 28.1928C23.2328 28.1928 22.9918 28.1928 20.2207 28.1928C17.4496 28.1928 17.2087 28.1928 16.1243 28.1928C15.1605 28.1928 14.6785 27.9518 14.3171 27.8313C13.8352 27.5904 13.4737 27.4699 13.1123 27.1084C12.7508 26.747 12.5099 26.3855 12.3894 25.9036C12.2689 25.5422 12.1484 25.0602 12.0279 24.0964C12.0279 23.0121 12.0279 22.7711 12.0279 20C12.0279 17.2289 12.0279 16.988 12.0279 15.9036C12.0279 14.9398 12.2689 14.4578 12.3894 14.0964C12.6303 13.6145 12.7508 13.253 13.1123 12.8916C13.4737 12.5301 13.8352 12.2892 14.3171 12.1687C14.6785 12.0482 15.1605 11.9277 16.1243 11.8072C17.2087 11.8072 17.5701 11.8072 20.2207 11.8072ZM20.2207 10C17.4496 10 17.2087 10 16.1243 10C15.04 10 14.3171 10.241 13.7147 10.4819C13.1123 10.7229 12.5099 11.0843 11.9075 11.6867C11.305 12.2892 11.0641 12.7711 10.7026 13.494C10.4617 14.0964 10.3412 14.8193 10.2207 15.9036C10.2207 16.988 10.2207 17.3494 10.2207 20C10.2207 22.7711 10.2207 23.0121 10.2207 24.0964C10.2207 25.1807 10.4617 25.9036 10.7026 26.506C10.9436 27.1084 11.305 27.7108 11.9075 28.3133C12.5099 28.9157 12.9918 29.1566 13.7147 29.5181C14.3171 29.759 15.04 29.8795 16.1243 30C17.2087 30 17.5701 30 20.2207 30C22.8713 30 23.2328 30 24.3171 30C25.4014 30 26.1243 29.759 26.7267 29.5181C27.3291 29.2771 27.9315 28.9157 28.534 28.3133C29.1364 27.7108 29.3773 27.2289 29.7388 26.506C29.9797 25.9036 30.1002 25.1807 30.2207 24.0964C30.2207 23.0121 30.2207 22.6506 30.2207 20C30.2207 17.3494 30.2207 16.988 30.2207 15.9036C30.2207 14.8193 29.9797 14.0964 29.7388 13.494C29.4978 12.8916 29.1364 12.2892 28.534 11.6867C27.9315 11.0843 27.4496 10.8434 26.7267 10.4819C26.1243 10.241 25.4014 10.1205 24.3171 10C23.2328 10 22.9918 10 20.2207 10Z" fill="white"/>
<path d="M20.2207 14.8193C17.3291 14.8193 15.04 17.1084 15.04 20C15.04 22.8916 17.3291 25.1807 20.2207 25.1807C23.1123 25.1807 25.4014 22.8916 25.4014 20C25.4014 17.1084 23.1123 14.8193 20.2207 14.8193ZM20.2207 23.3735C18.4135 23.3735 16.8472 21.9277 16.8472 20C16.8472 18.1928 18.293 16.6265 20.2207 16.6265C22.0279 16.6265 23.5942 18.0723 23.5942 20C23.5942 21.8072 22.0279 23.3735 20.2207 23.3735Z" fill="white"/>
<path d="M25.5219 15.9036C26.1873 15.9036 26.7267 15.3642 26.7267 14.6988C26.7267 14.0334 26.1873 13.494 25.5219 13.494C24.8565 13.494 24.3171 14.0334 24.3171 14.6988C24.3171 15.3642 24.8565 15.9036 25.5219 15.9036Z" fill="white"/>
</svg>
