<svg width="123" height="123" viewBox="0 0 123 123" fill="none" xmlns="http://www.w3.org/2000/svg">
<g clip-path="url(#clip0_431_669)">
<path d="M97.2048 121.426C96.1779 120.711 95.7852 119.704 95.7147 117.771C95.0603 98.1995 80.6032 82.1718 61.3439 79.665C56.5718 79.0408 52.6455 78.7489 48.9909 78.7489C43.4034 78.7489 38.4702 79.4435 33.9197 80.8731C18.4961 85.7056 9.04258 96.2967 5.81087 112.345C5.48871 113.935 5.13634 116.029 5.21688 118.143C5.27729 119.835 4.79404 120.781 3.51545 121.426H2.2872L0.65625 119.795V115.063C0.807264 114.308 0.938144 113.553 1.07909 112.787C1.39119 111.046 1.68315 109.405 2.13619 107.804C6.17331 93.5785 15.1436 83.4806 28.7953 77.7824L33.5874 75.7386L30.8188 73.9869C18.788 66.3959 12.2239 55.7544 11.3279 42.3645C10.5527 30.7565 14.3583 20.6285 22.654 12.2623C30.0537 4.77196 39.9502 0.654297 50.501 0.654297C62.0083 0.654297 72.8512 5.6277 80.2509 14.2959C87.7714 23.1051 91.0333 34.7231 89.1809 46.17C87.3083 57.7981 80.5529 67.6644 70.1631 73.9466L67.314 75.6682L71.5524 77.5005C87.3485 84.0444 96.8725 95.9141 99.8425 112.777C100.004 113.673 100.044 114.62 100.094 115.616C100.134 116.452 100.175 117.288 100.285 118.113C100.487 119.754 100.014 120.731 98.6344 121.415H97.1846L97.2048 121.426ZM50.4406 5.14446C31.3524 5.14446 15.7778 20.6889 15.7174 39.7972C15.657 58.8854 31.1611 74.5205 50.2796 74.6513H50.5212C69.5893 74.6513 85.1639 59.1069 85.2344 39.9986C85.2948 20.9003 69.7906 5.26527 50.6621 5.14446H50.4406Z" fill="#1F4960" stroke="#1F4960" stroke-width="1.3" stroke-miterlimit="10"/>
<path d="M119.081 116.13C117.259 116.13 116.967 114.268 116.927 113.472C116.071 96.1762 107.644 83.8333 91.8684 76.796C91.1536 76.4739 90.4287 76.2524 89.7341 76.0409L89.0495 75.8295C86.8346 75.1147 86.8749 73.8059 86.895 73.3831C86.9453 71.7924 88.3246 71.2488 89.1401 71.0575C94.1034 69.9299 98.5936 67.4633 102.49 63.7081C109.446 57.0232 112.598 47.7006 111.138 38.1162C109.678 28.5117 103.879 20.5281 95.231 16.2091C95.0296 16.1084 94.8182 16.0077 94.6169 15.9171C94.3551 15.7963 94.0833 15.6755 93.8316 15.5345C92.6235 14.8499 92.1805 13.6821 92.704 12.5444C93.0866 11.7189 93.8316 11.2256 94.7075 11.2256C95.0498 11.2256 95.4021 11.3061 95.7444 11.4571C101.231 13.8633 105.772 17.4675 109.235 22.1691C115.004 30.0017 117.239 39.425 115.527 48.7074C113.816 58.0199 108.349 66.0539 100.134 71.3394L96.5297 73.7355L98.8956 75.1248C105.812 79.1921 111.067 84.3165 114.984 90.79C119.242 97.8273 121.407 105.489 121.417 113.553C121.417 114.499 121.125 116.1 119.142 116.14H119.081V116.13Z" fill="#1F4960" stroke="#1F4960" stroke-width="1.3" stroke-miterlimit="10"/>
</g>
<defs>
<clipPath id="clip0_431_669">
<rect width="122.07" height="122.08" fill="white"/>
</clipPath>
</defs>
</svg>
