<svg width="97" height="97" viewBox="0 0 97 97" fill="none" xmlns="http://www.w3.org/2000/svg">
<g clip-path="url(#clip0_353_1042)">
<path d="M78.7537 58.3346C79.2102 58.0258 79.4922 57.8378 79.7607 57.6633C93.6581 48.7219 97.015 30.6241 87.2264 17.3328C84.3395 13.4125 80.6066 10.4992 76.1487 8.53902C74.4837 7.81404 72.7382 8.49875 72.0131 10.0561C71.3148 11.5732 71.8922 13.2514 73.4498 14.1241C73.8258 14.3389 74.2286 14.5 74.6046 14.688C87.9246 21.3471 90.6772 39.2971 79.9487 49.608C77.1692 52.2796 73.9466 54.1458 70.1467 55.005C68.4145 55.3944 67.394 56.5758 67.3537 58.0795C67.3 59.5966 68.24 60.7512 69.9721 61.3151C70.6703 61.5433 71.382 61.7178 72.0399 62.0132C83.9367 67.3163 90.1804 76.4994 90.8115 89.4954C90.9189 91.5495 92.1006 92.8921 93.9133 92.8518C95.7931 92.8116 97.0016 91.5093 97.0016 89.482C97.0016 82.8363 95.2157 76.6874 91.7783 71.0084C88.5826 65.7187 84.2589 61.5567 78.7402 58.3212L78.7537 58.3346Z" fill="white"/>
<path d="M76.3755 97.0003H3.86719C5.61276 96.2485 6.31099 94.9596 6.24385 93.0397C6.19014 91.6435 6.40498 90.2069 6.68695 88.8241C9.09047 76.8753 16.0996 68.9139 27.7278 65.2622C34.5489 63.1275 41.6521 63.4631 48.5672 64.3626C63.0689 66.2556 73.7706 78.3521 74.254 92.8384C74.3211 94.6777 74.7508 96.0739 76.3755 96.9869V97.0003Z" fill="white"/>
<path d="M76.3771 97.0002C74.739 96.0872 74.3093 94.6775 74.2556 92.8517C73.7722 78.3654 63.0705 66.269 48.5688 64.3759C41.6537 63.4764 34.5371 63.1408 27.7294 65.2755C16.1012 68.9272 9.0921 76.8752 6.68859 88.8374C6.40661 90.2202 6.19177 91.6568 6.24548 93.053C6.31262 94.9729 5.61439 96.2618 3.86882 97.0136H2.05611C1.37131 96.3289 0.686509 95.6442 -0.0117188 94.9461C-0.0117188 93.4827 -0.0117188 92.0193 -0.0117188 90.5559C0.377678 88.5823 0.646227 86.5819 1.19675 84.6486C4.48648 73.0892 11.6836 64.9667 22.7881 60.3348C23.2178 60.1469 23.6609 59.9589 24.1711 59.7441C14.6376 53.7294 9.07867 45.2445 8.32674 33.9938C7.68222 24.5019 10.8377 16.2183 17.5514 9.4518C30.7237 -3.83955 52.4897 -2.96689 64.5341 11.13C77.0753 25.8176 74.2422 48.9096 56.3299 59.7441C56.679 59.8918 56.961 60.0261 57.2296 60.1335C70.0931 65.4634 77.7199 74.9956 80.1368 88.6897C80.3785 90.0725 80.3248 91.5225 80.4994 92.9188C80.7411 94.8923 79.9757 96.2349 78.1764 97.0136H76.3637L76.3771 97.0002ZM14.4497 31.9128C14.4094 46.05 25.957 57.69 40.1095 57.784C54.2755 57.878 65.9977 46.2514 66.0514 32.0605C66.1051 17.9234 54.5441 6.28335 40.3915 6.18937C26.2121 6.09539 14.4899 17.722 14.4497 31.9128Z" fill="#E47638"/>
<path d="M0 94.9463C0.684801 95.631 1.3696 96.3157 2.06783 97.0138H0C0 96.3291 0 95.6444 0 94.9463Z" fill="white"/>
<path d="M78.752 58.3343C84.2572 61.5699 88.5809 65.7318 91.79 71.0215C95.2275 76.7005 96.9999 82.8495 97.0133 89.4951C97.0133 91.5224 95.8048 92.8247 93.925 92.865C92.1257 92.9052 90.9307 91.5627 90.8232 89.5085C90.1787 76.5126 83.9484 67.3295 72.0517 62.0263C71.3937 61.731 70.682 61.543 69.9838 61.3282C68.2517 60.7643 67.3118 59.6097 67.3655 58.0926C67.4192 56.5755 68.4397 55.4075 70.1584 55.0182C73.9449 54.1589 77.1809 52.2928 79.9604 49.6211C90.7024 39.3102 87.9498 21.3602 74.6163 14.7011C74.2269 14.5131 73.8375 14.352 73.4615 14.1372C71.9039 13.2645 71.3266 11.5863 72.0248 10.0692C72.7499 8.51187 74.4955 7.81374 76.1605 8.55215C80.6184 10.5123 84.3512 13.4256 87.2381 17.3459C97.0267 30.6373 93.6699 48.735 79.7724 57.6764C79.4905 57.851 79.2219 58.0389 78.7654 58.3477L78.752 58.3343Z" fill="#E47638"/>
</g>
<defs>
<clipPath id="clip0_353_1042">
<rect width="97" height="97" fill="white"/>
</clipPath>
</defs>
</svg>
