<svg width="60" height="60" viewBox="0 0 60 60" fill="none" xmlns="http://www.w3.org/2000/svg">
<g id="Layer_1" clip-path="url(#clip0_354_1101)">
<path id="Vector" d="M13.0185 53.9116C12.7524 54.2648 12.4123 54.4464 12.0032 54.4611C11.5941 54.4758 11.1653 54.309 10.7118 53.9705C10.2928 53.6565 9.98724 53.3033 9.78516 52.9059L10.3668 52.1357C10.5393 52.4496 10.7019 52.6998 10.8498 52.8863C10.9977 53.0727 11.1455 53.2199 11.2983 53.3327C11.4807 53.4701 11.6483 53.5388 11.7962 53.5437C11.944 53.5437 12.0722 53.4799 12.1757 53.3425C12.2348 53.264 12.2644 53.1806 12.2644 53.0874C12.2644 52.9942 12.2496 52.8912 12.2053 52.7734C12.1609 52.6557 12.0623 52.4398 11.8997 52.1307C11.7469 51.8413 11.6483 51.596 11.6089 51.4047C11.5694 51.2133 11.5645 51.022 11.599 50.8307C11.6335 50.6393 11.7173 50.4529 11.8553 50.2665C12.1165 49.9182 12.4419 49.7366 12.8263 49.7121C13.2108 49.6876 13.61 49.8348 14.024 50.1438C14.2261 50.2959 14.4036 50.4627 14.5514 50.654C14.6993 50.8405 14.8422 51.0514 14.9753 51.2918L14.2212 51.7383C14.0783 51.4979 13.9501 51.3065 13.8417 51.1692C13.7332 51.0318 13.61 50.9141 13.4769 50.8159C13.3192 50.6982 13.1713 50.6442 13.0333 50.654C12.8953 50.6639 12.782 50.7276 12.6883 50.8454C12.6341 50.919 12.5996 50.9975 12.5947 51.076C12.5897 51.1545 12.5996 51.2477 12.639 51.3556C12.6735 51.4635 12.782 51.6843 12.9545 52.0228C13.1861 52.4742 13.3044 52.8372 13.3093 53.1119C13.3093 53.3916 13.2157 53.6565 13.0235 53.9116H13.0185Z" fill="#134E6D"/>
<path id="Vector_2" d="M18.9062 53.9214C18.5513 53.7645 18.2112 53.7743 17.8958 53.9558C17.5803 54.1373 17.3141 54.466 17.0973 54.9468C16.6487 55.9476 16.8015 56.6099 17.5507 56.9435C17.8662 57.0809 18.2802 57.1741 18.7978 57.2133L18.4429 58.0081C18.0091 57.9983 17.5655 57.8953 17.1121 57.6941C16.4614 57.4047 16.0523 56.9877 15.8848 56.4382C15.7172 55.8887 15.801 55.2461 16.1312 54.5053C16.3382 54.0392 16.6093 53.6712 16.9346 53.3965C17.2599 53.1218 17.6247 52.9599 18.0239 52.9157C18.4232 52.8716 18.8372 52.9402 19.266 53.1316C19.6998 53.3229 20.0891 53.6222 20.4342 54.0294L19.7835 54.6671C19.6505 54.5151 19.5174 54.3679 19.3744 54.2354C19.2315 54.103 19.0787 53.9999 18.9161 53.9263L18.9062 53.9214Z" fill="#134E6D"/>
<path id="Vector_3" d="M26.0165 59.9852L24.9962 59.8135L25.3511 57.7285L23.4387 57.4047L23.0838 59.4897L22.0586 59.318L22.8768 54.4807L23.902 54.6524L23.5816 56.5461L25.4941 56.865L25.8144 54.9713L26.8347 55.143L26.0165 59.9754V59.9852Z" fill="#134E6D"/>
<path id="Vector_4" d="M34.2898 57.233C34.3736 58.0425 34.2405 58.6802 33.8856 59.1561C33.5307 59.632 32.9787 59.9067 32.2344 59.9852C31.4902 60.0637 30.8938 59.9018 30.4501 59.5094C30.0065 59.1169 29.7404 58.5134 29.6566 57.704C29.5728 56.8945 29.7108 56.2518 30.0657 55.7808C30.4206 55.3098 30.9726 55.04 31.7218 54.9615C32.471 54.883 33.0625 55.04 33.5061 55.4325C33.9448 55.825 34.2109 56.4235 34.2947 57.233H34.2898ZM30.736 57.596C30.7902 58.1406 30.9381 58.5429 31.1747 58.798C31.4113 59.0531 31.7317 59.161 32.1408 59.1169C32.9639 59.0335 33.3188 58.4399 33.2054 57.3458C33.0921 56.2469 32.6238 55.7416 31.8056 55.825C31.3965 55.8642 31.1008 56.0359 30.9184 56.3352C30.736 56.6345 30.6769 57.0564 30.7311 57.6009L30.736 57.596Z" fill="#134E6D"/>
<path id="Vector_5" d="M41.5513 54.8047C41.8519 55.5602 41.8963 56.2127 41.6893 56.767C41.4773 57.3214 41.0239 57.7335 40.3289 58.0083C39.6339 58.283 39.0178 58.2928 38.4805 58.0377C37.9433 57.7826 37.5243 57.2724 37.2237 56.5168C36.923 55.7613 36.8737 55.1039 37.0906 54.5594C37.3025 54.0099 37.7609 53.5978 38.4608 53.3231C39.1607 53.0483 39.7769 53.0385 40.3043 53.2936C40.8366 53.5487 41.2506 54.059 41.5562 54.8145L41.5513 54.8047ZM38.2341 56.1195C38.4362 56.6297 38.6876 56.9731 38.9833 57.1546C39.279 57.3361 39.6191 57.3509 40.0036 57.1988C40.7725 56.8946 40.9499 56.2323 40.5408 55.2069C40.1317 54.1816 39.5452 53.8186 38.7763 54.1227C38.3918 54.2748 38.1552 54.5201 38.0616 54.8537C37.9679 55.1873 38.0271 55.6092 38.2292 56.1195H38.2341Z" fill="#134E6D"/>
<path id="Vector_6" d="M45.7566 55.1383L42.8633 51.1694L43.7012 50.561L46.0868 53.8333L47.6936 52.6755L48.2013 53.3722L45.7566 55.1383Z" fill="#134E6D"/>
<path id="Vector_7" d="M9.70597 8.17334C9.41517 8.43335 9.29194 8.74734 9.33137 9.10547C9.37081 9.46851 9.56796 9.84137 9.92285 10.2289C10.6622 11.0384 11.3325 11.1709 11.9388 10.6214C12.1951 10.3908 12.4415 10.0474 12.688 9.59607L13.2745 10.2437C13.0922 10.6361 12.8161 10.9992 12.4465 11.3279C11.9191 11.8038 11.372 12.0098 10.8002 11.9411C10.2284 11.8724 9.67147 11.5388 9.12436 10.9403C8.77933 10.5625 8.54767 10.1701 8.42445 9.76287C8.30123 9.35568 8.30123 8.95829 8.42445 8.57563C8.54274 8.19296 8.7744 7.84464 9.11943 7.53066C9.46938 7.21177 9.90313 6.98119 10.4157 6.8291L10.7361 7.67783C10.5439 7.73671 10.3517 7.80048 10.1742 7.87898C9.99185 7.95747 9.83906 8.05069 9.70597 8.17334Z" fill="#134E6D"/>
<path id="Vector_8" d="M15.7193 6.62808L16.6164 8.28139L15.7045 8.77199L13.3633 4.45964L14.6152 3.78753C15.2018 3.47354 15.6897 3.34599 16.089 3.40977C16.4833 3.47354 16.8037 3.71884 17.0353 4.15547C17.1734 4.41058 17.2276 4.6706 17.1931 4.94533C17.1586 5.22007 17.0501 5.48009 16.853 5.73029C18.0261 6.35335 18.79 6.75073 19.14 6.92735L18.1246 7.47191L16.1974 6.36806L15.7095 6.62808H15.7193ZM15.3151 5.88237L15.6109 5.72538C15.9017 5.56839 16.0841 5.4065 16.1728 5.23479C16.2566 5.06308 16.2467 4.87665 16.1333 4.6706C16.02 4.46455 15.8721 4.35662 15.6848 4.34681C15.4975 4.33699 15.256 4.41058 14.9603 4.56757L14.6842 4.71475L15.3151 5.88237Z" fill="#134E6D"/>
<path id="Vector_9" d="M24.1438 5.42105L21.423 6.14223L20.1562 1.40306L22.877 0.681885L23.0988 1.50609L21.3786 1.96234L21.6596 3.00241L23.2615 2.57559L23.4833 3.39979L21.8814 3.82661L22.2067 5.0482L23.9269 4.59194L24.1487 5.42105H24.1438Z" fill="#134E6D"/>
<path id="Vector_10" d="M29.7674 3.55193C29.7871 3.99347 29.6392 4.3467 29.3336 4.61653C29.028 4.88145 28.5894 5.02863 28.0225 5.05316C27.5001 5.07278 27.0367 4.99429 26.6276 4.81277L26.5882 3.84629C26.9234 3.97875 27.2093 4.07197 27.436 4.12593C27.6677 4.17499 27.8796 4.19952 28.0669 4.18971C28.2936 4.1799 28.4661 4.13084 28.5844 4.03762C28.7027 3.94441 28.7569 3.81195 28.752 3.64024C28.752 3.54212 28.7175 3.45872 28.6633 3.38513C28.6042 3.31154 28.5253 3.24286 28.4169 3.17908C28.3084 3.1153 28.0965 3.01228 27.7712 2.87491C27.4656 2.74735 27.2388 2.6198 27.0811 2.49715C26.9283 2.3745 26.8002 2.22732 26.7065 2.06052C26.6079 1.89372 26.5586 1.69257 26.5488 1.46199C26.5291 1.03027 26.6621 0.681941 26.948 0.421925C27.229 0.161909 27.6331 0.0196355 28.1507 1.15784e-05C28.407 -0.00980036 28.6485 0.00982352 28.8802 0.0588832C29.1118 0.107943 29.3583 0.186438 29.6146 0.284558L29.3139 1.10385C29.0478 1.00574 28.8309 0.941958 28.6584 0.907616C28.4859 0.873274 28.3183 0.858556 28.1507 0.863462C27.9535 0.873274 27.8057 0.922334 27.7071 1.02045C27.6085 1.11857 27.5592 1.23632 27.5641 1.38349C27.5641 1.47671 27.5937 1.5552 27.6381 1.61898C27.6824 1.68276 27.7514 1.74654 27.85 1.81031C27.9486 1.87409 28.1704 1.97712 28.5204 2.1292C28.9886 2.33035 29.309 2.5364 29.4864 2.74735C29.6639 2.95831 29.7625 3.22814 29.7723 3.54703L29.7674 3.55193Z" fill="#134E6D"/>
<path id="Vector_11" d="M34.3636 5.46032L33.3433 5.2739L34.0679 1.30006L32.7617 1.06458L32.9194 0.210938L36.5521 0.868337L36.3943 1.72198L35.0882 1.48649L34.3636 5.46032Z" fill="#134E6D"/>
<path id="Vector_12" d="M43.1482 6.05398C42.8032 6.78988 42.3596 7.27066 41.8125 7.49634C41.2654 7.72201 40.6492 7.67786 39.969 7.36388C39.2889 7.0499 38.86 6.60836 38.6777 6.04908C38.5002 5.48489 38.5791 4.8324 38.9241 4.0916C39.2691 3.3508 39.7177 2.87001 40.2648 2.64924C40.8119 2.42847 41.428 2.47263 42.1082 2.79151C42.7884 3.1055 43.2172 3.54703 43.3996 4.10631C43.582 4.66559 43.4932 5.31809 43.1482 6.05398ZM39.9099 4.55766C39.6782 5.05317 39.5994 5.47017 39.6684 5.80869C39.7374 6.1472 39.9641 6.40231 40.3387 6.57402C41.0879 6.92234 41.6991 6.59364 42.1624 5.59282C42.6307 4.59201 42.4927 3.91989 41.7435 3.57156C41.3689 3.39985 41.0288 3.39495 40.7182 3.55685C40.4127 3.71874 40.1416 4.05235 39.9099 4.54785V4.55766Z" fill="#134E6D"/>
<path id="Vector_13" d="M47.6879 12.6476L46.6923 11.7841L47.5351 7.59442L47.5105 7.57479C47.1112 8.09483 46.8155 8.46278 46.6331 8.67373L45.1101 10.4104L44.4102 9.8021L47.6485 6.10791L48.6343 6.96645L47.8111 11.1218L47.8308 11.1365C48.2252 10.6361 48.511 10.2829 48.6835 10.0867L50.2164 8.33522L50.9213 8.94847L47.683 12.6427L47.6879 12.6476Z" fill="#134E6D"/>
<g id="Group">
<path id="Vector_14" d="M34.4648 40.7685C34.7951 39.9492 35.1105 39.1594 35.426 38.3646C36.0372 36.829 36.6484 35.2984 37.2645 33.7628C37.8313 32.3499 38.4031 30.937 38.9699 29.5192C39.5564 28.0621 40.1381 26.6001 40.7246 25.143C41.183 23.9999 41.6414 22.8568 42.0948 21.7138C42.3314 21.125 42.568 20.5363 42.7997 19.9476C42.844 19.8299 42.9081 19.7759 43.0412 19.7808C43.3813 19.7906 43.7165 19.7808 44.0566 19.7808C48.0096 19.7808 51.9577 19.7759 55.9107 19.771C56.2113 19.771 56.2064 19.771 56.1719 20.0703C56.1029 20.7178 56.0437 21.3703 55.9797 22.0179C55.9008 22.8176 55.8121 23.6173 55.7332 24.4219C55.6839 24.9026 55.6396 25.3834 55.5952 25.8642C55.5262 26.5756 55.4572 27.2869 55.3931 27.9934C55.3241 28.7342 55.2502 29.475 55.191 30.2158C55.1713 30.4709 55.1812 30.4709 55.4375 30.4709C56.2606 30.4709 57.0838 30.4709 57.9069 30.4709C58.0794 30.4709 58.1287 30.5151 58.109 30.6868C57.9907 31.6925 57.8872 32.6982 57.7787 33.7089C57.7492 33.9787 57.7393 33.9934 57.4682 33.9934C56.6697 33.9934 55.8712 33.9934 55.0727 33.9934C54.8066 33.9934 54.8066 34.0081 54.7869 34.273C54.7376 34.8765 54.6735 35.475 54.6144 36.0784C54.5601 36.6475 54.5108 37.2215 54.4566 37.7906C54.4024 38.3548 54.3482 38.919 54.289 39.4832C54.2595 39.7923 54.22 40.1013 54.1954 40.4104C54.1757 40.6655 54.1806 40.6655 53.9144 40.6655C52.1055 40.6655 50.3015 40.6655 48.4926 40.6655H47.8913C47.8913 40.5674 47.8814 40.4546 47.8913 40.3417C47.9504 39.7579 48.0145 39.179 48.0786 38.5952C48.1574 37.9084 48.2462 37.2264 48.3201 36.5396C48.3792 36.0245 48.4236 35.5093 48.4778 34.9942C48.5025 34.744 48.532 34.4987 48.5665 34.2485C48.5961 34.0228 48.5961 34.0179 48.3546 34.0179C47.3491 34.0179 46.3387 34.0179 45.3332 34.0179C45.2543 34.0179 45.1754 34.013 45.0916 34.0081C45.1163 33.7628 45.136 33.5421 45.1606 33.3164C45.2444 32.5216 45.3381 31.7268 45.417 30.9321C45.4613 30.4856 45.4564 30.4856 45.9049 30.4856C46.8513 30.4856 47.7976 30.4856 48.744 30.4856C48.9904 30.4856 48.9904 30.4758 49.0151 30.2305C49.0742 29.6811 49.1432 29.1267 49.2024 28.5772C49.2763 27.8658 49.3453 27.1545 49.4193 26.448C49.4735 25.9378 49.5375 25.4325 49.5918 24.9223C49.6115 24.7506 49.6164 24.5788 49.6361 24.412C49.6509 24.2894 49.5918 24.2501 49.4735 24.2501C48.6947 24.2501 47.911 24.2501 47.1322 24.2501C47.0139 24.2501 46.9548 24.3041 46.9153 24.4071C46.6295 25.1921 46.3436 25.9721 46.0577 26.7571C45.7324 27.65 45.4071 28.5429 45.0818 29.4358C44.6037 30.7506 44.1256 32.0703 43.6425 33.3851C43.1644 34.69 42.6863 35.995 42.2082 37.2951C41.8139 38.3695 41.4245 39.4488 41.0351 40.5232C40.9809 40.6753 40.902 40.7391 40.7295 40.7391C38.8664 40.7342 37.0033 40.7342 35.145 40.7391C34.9331 40.7391 34.7162 40.7587 34.4698 40.7685H34.4648Z" fill="#134E6D"/>
<path id="Vector_15" d="M0 34.0278C0.0394315 33.5961 0.0690052 33.1938 0.108437 32.7964C0.167584 32.2371 0.23166 31.6828 0.290807 31.1235C0.300665 31.0254 0.305594 30.9272 0.320381 30.834C0.369671 30.5053 0.369671 30.5053 0.69991 30.5053C1.54276 30.5053 2.38561 30.5053 3.22353 30.5053C3.46997 30.5053 3.46505 30.4955 3.49462 30.2453C3.56855 29.529 3.65727 28.8177 3.73614 28.1014C3.79036 27.5961 3.83964 27.0957 3.89879 26.5904C3.94808 26.1292 4.00723 25.668 4.06145 25.2118C4.12059 24.7212 4.17481 24.2306 4.22903 23.74C4.28818 23.2249 4.34733 22.7097 4.40647 22.1946C4.46069 21.7089 4.51491 21.2232 4.5642 20.7375C4.58884 20.4873 4.61349 20.242 4.63813 19.9918C4.64799 19.8741 4.71207 19.8152 4.83529 19.825C4.89444 19.825 4.95851 19.825 5.01766 19.825C8.72915 19.825 12.4406 19.8299 16.1521 19.825C17.3548 19.825 18.4589 20.1243 19.4397 20.8111C20.4452 21.5127 21.0614 22.4841 21.3522 23.6713C21.5838 24.6034 21.6035 25.5405 21.4951 26.4873C21.4261 27.0711 21.3817 27.655 21.2782 28.229C21.0318 29.6026 20.6424 30.9223 19.7552 32.0458C19.0947 32.8798 18.2322 33.4097 17.2168 33.7089C16.4035 33.9493 15.5705 34.0572 14.7326 34.072C13.3081 34.0965 11.8837 34.0916 10.4592 34.1014C10.4395 34.1014 10.4247 34.0916 10.3803 34.0818C10.405 33.8119 10.4296 33.5421 10.4592 33.2723C10.5184 32.6836 10.5775 32.0949 10.6416 31.5061C10.6712 31.2412 10.7057 30.9714 10.7303 30.7065C10.7451 30.5642 10.7993 30.5004 10.962 30.5004C11.5879 30.5102 12.2139 30.5102 12.8448 30.5004C13.2441 30.4906 13.6384 30.417 13.9982 30.2257C14.4812 29.9657 14.7474 29.529 14.91 29.0335C15.2403 28.0229 15.2846 26.973 15.2354 25.9182C15.2255 25.6729 15.1565 25.4227 15.0727 25.1922C14.841 24.5397 14.3087 24.2502 13.668 24.2159C12.6674 24.1619 11.6668 24.1766 10.6662 24.1668C10.5479 24.1668 10.4937 24.2257 10.4789 24.3434C10.4149 25.0106 10.3458 25.6779 10.2719 26.3451C10.198 27.0221 10.1093 27.704 10.0304 28.381C9.95153 29.0973 9.88253 29.8136 9.80366 30.5299C9.7248 31.2314 9.64101 31.933 9.56215 32.6394C9.48821 33.3361 9.41921 34.0376 9.34527 34.7343C9.29105 35.2494 9.22698 35.7645 9.16783 36.2796C9.11361 36.7506 9.06432 37.2265 9.01503 37.7024C8.95589 38.2371 8.89181 38.767 8.83266 39.3017C8.7883 39.6942 8.74394 40.0916 8.70944 40.4841C8.69465 40.6312 8.63058 40.6705 8.48271 40.6705C6.51606 40.6705 4.54941 40.6705 2.58276 40.6705C2.37082 40.6705 2.37082 40.6607 2.39547 40.4497C2.45954 39.8904 2.50883 39.3312 2.57291 38.7768C2.64684 38.0998 2.7257 37.4178 2.80457 36.7408C2.86371 36.2061 2.91793 35.6762 2.97708 35.1415C3.00665 34.8569 3.03623 34.5724 3.07566 34.2878C3.10523 34.072 3.09537 34.0523 2.8785 34.0523C2.00608 34.0523 1.13366 34.0523 0.261234 34.0523C0.1873 34.0523 0.118295 34.0523 0.00985788 34.0523L0 34.0278Z" fill="#134E6D"/>
<path id="Vector_16" d="M22.1251 40.7586C24.2642 35.259 26.3935 29.784 28.5426 24.2647C28.4193 24.2549 28.3257 24.2451 28.232 24.2451C26.2654 24.2451 24.2987 24.25 22.3321 24.2549C22.061 24.2549 22.0709 24.2647 22.1004 24.0096C22.2138 23.0284 22.3222 22.0473 22.4257 21.0612C22.4603 20.7472 22.4849 20.4283 22.5145 20.1143C22.5342 19.8543 22.5638 19.8248 22.8201 19.8199C25.6838 19.8101 28.5475 19.8003 31.4112 19.7954C34.7382 19.7954 38.0603 19.7954 41.3874 19.7954H41.6683C41.5796 20.0358 41.5007 20.2517 41.417 20.4626C40.9339 21.6646 40.446 22.8665 39.9629 24.0734C39.9087 24.2108 39.8348 24.25 39.6918 24.25C38.2969 24.2451 36.902 24.25 35.5072 24.2451C35.3149 24.2451 35.2213 24.2991 35.1473 24.4904C34.5953 25.8886 34.0235 27.2819 33.4616 28.6801C32.7716 30.3923 32.0815 32.1045 31.3964 33.8167C30.7803 35.3571 30.1691 36.8976 29.5481 38.4332C29.2523 39.1691 28.9467 39.9001 28.6559 40.636C28.6165 40.7341 28.5672 40.7782 28.4588 40.7782C26.3837 40.7782 24.3037 40.7782 22.2286 40.7782C22.2039 40.7782 22.1793 40.7733 22.1349 40.7684L22.1251 40.7586Z" fill="#134E6D"/>
</g>
<path id="Vector_17" d="M58.4415 21.4685H58.3281V21.9395H58.4464C58.5647 21.9395 58.6534 21.9199 58.7077 21.8806C58.7619 21.8414 58.7914 21.7776 58.7914 21.6942C58.7914 21.6108 58.7619 21.5519 58.7077 21.5176C58.6534 21.4832 58.5598 21.4636 58.4415 21.4636V21.4685Z" fill="#134E6D"/>
<path id="Vector_18" d="M58.6087 20.7229C57.8398 20.7229 57.2188 21.3411 57.2188 22.1064C57.2188 22.8717 57.8398 23.4899 58.6087 23.4899C59.3776 23.4899 59.9987 22.8717 59.9987 22.1064C59.9987 21.3411 59.3776 20.7229 58.6087 20.7229ZM58.9439 22.9159L58.5249 22.2437H58.3278V22.9159H57.9532V21.1644H58.4658C58.7073 21.1644 58.8798 21.2086 58.9981 21.292C59.1115 21.3803 59.1706 21.5128 59.1706 21.6845C59.1706 21.7875 59.141 21.8807 59.0868 21.9592C59.0277 22.0377 58.9488 22.1015 58.8453 22.1456C59.1115 22.5381 59.284 22.7932 59.3628 22.9061H58.9488L58.9439 22.9159Z" fill="#134E6D"/>
</g>
<defs>
<clipPath id="clip0_354_1101">
<rect width="60" height="60" fill="white"/>
</clipPath>
</defs>
</svg>
