<svg width="160" height="18" viewBox="0 0 160 18" fill="none" xmlns="http://www.w3.org/2000/svg">
<path d="M124.176 9.12621C125.806 7.16638 127.5 5.41455 129.931 3.96668C133.823 1.64689 138.401 1.03094 143.327 2.15883C153.905 4.59062 158.379 9.82216 159.194 16.3416C159.31 17.2935 158.664 17.9494 157.112 17.9974C155.573 18.0454 154.771 17.4135 154.629 16.5096C154.241 14.0938 153.194 11.814 151.267 9.69417C149.095 7.31839 145.732 5.76652 141.711 4.8946C138.323 4.15867 135.155 4.66263 132.659 6.42247C129.439 8.68627 127.719 11.382 126.62 14.2538C126.245 15.2537 126 16.3576 123.944 16.4136C121.745 16.4696 121.668 15.3177 121.267 14.3338C120.452 12.3419 119.65 10.3341 117.569 8.63827C114.569 6.20648 111.194 5.67851 106.862 7.17438C101.793 8.92623 99.0641 11.838 97.0986 15.0777C96.5555 15.9816 96.5296 17.1815 94.396 17.2695C92.0555 17.3655 91.8486 16.1176 91.215 15.1577C88.9391 11.694 86.3399 8.3503 81.6976 5.79853C76.5899 2.99078 71.8183 3.23075 67.6157 6.54246C65.676 8.07032 64.3312 9.79816 63.2838 11.63C62.7924 12.4779 62.4303 13.4938 60.5424 13.6378C58.5768 13.7898 58.0337 12.7899 57.2967 12.014C54.5682 9.13423 51.7622 6.27048 47.1328 4.39065C40.4862 1.67889 33.5551 2.6628 29.3784 6.83843C27.1672 9.05424 25.6672 11.486 23.9473 13.8458C23.3654 14.6457 22.7448 15.4777 21.0637 15.4937C19.4861 15.5017 19.0723 14.6377 18.387 13.9738C14.6111 10.3021 10.0981 7.31039 2.23601 7.53437C0.813598 7.57437 -0.026948 7.07042 -0.00108441 6.1985C0.0247792 5.26259 0.891188 4.79061 2.44292 4.70262C8.22313 4.39864 12.93 5.79854 16.9904 8.19832C20.9732 10.5501 20.9215 10.5581 23.4172 7.39039C26.0939 3.99869 29.6499 1.15093 36.0508 0.279006C43.1759 -0.688909 48.9303 0.934958 53.8053 4.01468C55.3829 5.0066 56.8441 6.0945 58.0596 7.26239C59.3656 8.51828 60.2579 8.81425 61.3958 7.23839C61.8743 6.58245 62.6114 5.9905 63.2579 5.38255C68.9864 0.0470259 77.9347 -0.552908 85.396 3.8947C88.3701 5.66254 90.8012 7.68635 92.5986 9.98214C93.5814 11.238 94.3313 11.782 95.7667 10.1181C97.5512 8.03833 100.073 6.28647 103.331 5.03058C110.469 2.27082 117.4 3.19874 122.107 7.47836C122.689 8.00631 122.909 8.71825 124.267 9.13422L124.176 9.12621Z" fill="#6E97BA"/>
</svg>
