<svg width="122" height="123" viewBox="0 0 122 123" fill="none" xmlns="http://www.w3.org/2000/svg">
<g clip-path="url(#clip0_431_632)">
<path d="M121.999 64.3625C121.515 66.4394 121.208 68.5756 120.506 70.5733C119.774 72.6501 118.736 74.6281 117.697 76.5863C116.926 78.0499 115.512 78.3565 114.147 77.5752C113.019 76.9225 112.683 75.4489 113.504 74.1336C116.263 69.703 117.222 64.857 117.173 59.7143C117.104 52.841 117.163 45.9676 117.153 39.0942C117.153 37.1954 116.214 35.9591 114.72 35.8306C112.841 35.6526 111.605 36.8789 111.595 38.9854C111.575 43.5149 111.595 48.0444 111.575 52.5739C111.575 54.2849 110.349 55.353 108.737 55.1354C107.441 54.9574 106.68 53.9486 106.68 52.386C106.68 44.1577 106.68 35.9394 106.68 27.7111C106.68 25.3277 105.592 23.8838 103.852 23.9332C102.121 23.9827 101.112 25.3573 101.112 27.6913C101.112 35.9196 101.112 44.138 101.112 52.3662C101.112 53.8992 100.4 54.8782 99.1835 55.1156C97.5715 55.4321 96.2166 54.3046 96.2067 52.5739C96.1869 48.8356 96.2067 45.1072 96.2067 41.3688C96.2067 33.9812 96.2067 26.5935 96.2067 19.196C96.2067 17.1093 95.0793 15.9324 93.2299 16.0115C92.0629 16.061 91.2717 16.6741 90.9058 17.7323C90.6882 18.3554 90.6487 19.0576 90.6487 19.7202C90.6289 29.7286 90.6487 39.7469 90.6388 49.7554C90.6388 51.3872 89.8179 52.3959 88.463 52.5047C86.8213 52.6432 85.7335 51.5948 85.7335 49.8246C85.7335 42.3183 85.7335 34.8119 85.7335 27.2957C85.7335 25.565 85.1005 24.5464 83.7951 24.1112C82.371 23.6365 80.8282 24.398 80.393 25.8419C80.2545 26.287 80.1853 26.7716 80.1853 27.2463C80.1754 37.136 80.1754 47.0258 80.1853 56.9254C80.1853 57.1924 80.2249 57.4694 80.2447 57.6177C81.7479 57.6177 83.2215 57.41 84.6159 57.6573C88.1466 58.2803 90.6586 61.445 90.6586 65.0251C90.6586 72.927 90.6981 80.8389 90.6586 88.7408C90.619 95.9603 88.0081 102.191 83.1819 107.521C83.0237 107.699 82.8753 107.897 82.6874 108.036C79.9381 109.984 78.8997 112.595 79.4436 115.918C79.6018 116.847 79.4831 117.817 79.4634 118.776C79.4535 119.251 79.4337 119.735 79.315 120.19C78.9985 121.417 77.9601 122.138 76.7536 122.04C75.5569 121.941 74.6471 121.051 74.6273 119.735C74.5778 116.521 74.5482 113.297 74.6471 110.083C74.6668 109.43 75.1811 108.698 75.6558 108.164C77.4063 106.216 79.3744 104.456 80.9963 102.408C84.2006 98.3635 85.7533 93.6461 85.7928 88.4935C85.862 80.8685 85.8126 73.2336 85.8126 65.6086C85.8126 63.9471 85.0709 62.8296 83.7852 62.4736C81.8468 61.9296 80.1556 63.2549 80.1458 65.3911C80.1161 69.9997 80.1458 74.6083 80.126 79.2169C80.126 80.552 79.2755 81.5311 78.0491 81.7289C76.981 81.9069 75.7844 81.1751 75.458 80.0773C75.3196 79.6323 75.3294 79.1378 75.3294 78.673C75.3294 70.6524 75.3294 62.6219 75.3294 54.6013C75.3294 54.3244 75.3294 54.0475 75.3294 53.7706C75.3097 51.8421 74.2317 50.5861 72.5702 50.5564C70.8494 50.5267 69.6626 51.7926 69.6626 53.7508C69.6527 61.9791 69.6626 70.1975 69.6626 78.4258C69.6626 80.5718 68.8517 81.7289 67.3089 81.7685C65.7463 81.808 64.8463 80.5817 64.8463 78.406C64.8463 67.5173 64.8463 56.6386 64.8463 45.75C64.8463 43.4061 63.0266 41.982 61.019 42.7138C59.8421 43.149 59.1795 44.2072 59.1795 45.75C59.1795 51.2289 59.1795 56.7177 59.1795 62.1967C59.1795 67.8338 59.1795 73.4809 59.1795 79.118C59.1795 80.6707 58.1015 81.7981 56.7268 81.7586C55.4016 81.719 54.4126 80.6114 54.3731 79.118C54.3731 78.8411 54.3731 78.5642 54.3731 78.2873C54.3731 70.3063 54.3731 62.3153 54.3731 54.3343C54.3731 53.9783 54.3928 53.6222 54.3632 53.2662C54.2445 51.7531 53.1368 50.6256 51.7028 50.5564C50.1996 50.4872 48.9535 51.5256 48.7359 53.0684C48.6766 53.4937 48.6964 53.9387 48.6964 54.3739C48.6964 63.7098 48.6964 73.0457 48.6964 82.3817C48.6964 83.7168 48.1722 84.6958 46.9953 85.2695C45.8975 85.8035 44.7503 85.7046 43.8998 84.8541C43.346 84.3003 42.9603 83.4794 42.7427 82.7179C42.1197 80.5125 41.6351 78.2576 41.0615 76.0324C40.5769 74.1237 39.1923 73.1347 37.5407 73.4611C35.8891 73.7875 34.9496 75.2709 35.3254 77.1895C36.2748 82.174 37.1748 87.1584 38.2923 92.1033C39.2516 96.3361 41.4472 99.9459 44.5328 103.012C46.2536 104.713 47.9546 106.453 49.6853 108.135C50.4765 108.906 50.8424 109.776 50.8325 110.894C50.793 113.554 50.8325 116.214 50.8128 118.875C50.8128 119.35 50.793 119.834 50.6644 120.289C50.338 121.456 49.3194 122.129 48.1425 122.03C47.0349 121.941 46.1052 121.149 46.0459 119.963C45.9371 117.629 45.8975 115.275 45.9668 112.941C46.0063 111.764 45.6107 110.953 44.7899 110.142C42.7032 108.075 40.5868 106.018 38.7077 103.773C35.2858 99.6788 33.6343 94.7933 32.7244 89.5913C32.042 85.6947 31.2113 81.8179 30.4893 77.9313C29.8564 74.5193 31.2607 71.3546 34.0892 69.6535C36.9572 67.9327 40.478 68.2195 43.2075 70.4052C43.3559 70.5238 43.5042 70.6623 43.8009 70.9293C43.8306 70.4052 43.8701 70.0392 43.8701 69.6733C43.8701 64.3922 43.8701 59.1012 43.8701 53.82C43.8701 48.1829 48.2513 44.7017 53.7203 45.9676C53.8786 46.0071 54.0269 46.017 54.1159 46.0368C54.9763 42.516 55.8269 39.025 55.5302 35.346C55.3324 32.8142 55.5302 30.2626 55.4708 27.721C55.4214 25.8617 54.2445 24.6453 52.6621 24.6453C51.0402 24.6453 49.9227 25.9606 49.9128 27.8693C49.9128 31.3604 49.9128 34.8614 49.9128 38.3525C49.9128 39.5491 49.3787 40.3996 48.2612 40.8546C47.2426 41.2601 46.2832 41.0029 45.6998 40.192C45.2745 39.6085 45.0569 38.7382 45.0569 37.9964C44.9976 33.0713 45.0272 28.1462 45.0272 23.2211C45.0272 20.8377 45.047 18.4543 45.0272 16.0708C45.0075 14.3105 44.1075 13.1237 42.7229 12.916C40.8439 12.6391 39.4593 13.8852 39.4494 15.9027C39.4494 24.0024 39.4494 32.112 39.4494 40.2117C39.4494 40.5678 39.4494 40.9238 39.4494 41.2798C39.4198 42.9116 38.3912 44.0786 36.9869 44.0786C35.5726 44.0786 34.5639 42.9512 34.5639 41.2798C34.554 30.4308 34.5639 19.5916 34.554 8.74254C34.554 8.14916 34.5243 7.54588 34.3958 6.97228C34.1189 5.66683 32.8925 4.74708 31.6266 4.8262C30.3014 4.90532 29.1344 5.9833 28.9861 7.31842C28.9465 7.71401 28.9663 8.1096 28.9663 8.50519C28.9663 19.196 28.9663 29.8769 28.9663 40.5678C28.9663 40.9238 28.9861 41.2798 28.9663 41.6359C28.8674 43.0105 27.7894 44.0786 26.5136 44.0786C25.2181 44.0786 24.1401 43.0303 24.1005 41.6359C24.0511 40.0041 24.0808 38.3821 24.0808 36.7503C24.0808 30.0747 24.0808 23.3992 24.0808 16.7236C24.0808 16.2489 24.0808 15.7643 24.0016 15.2994C23.7247 13.6775 22.5874 12.7776 21.005 12.8863C19.571 12.9852 18.5326 14.1325 18.5029 15.7049C18.4832 17.0203 18.5029 18.3257 18.5029 19.6411C18.5029 27.9484 18.5029 36.2459 18.5029 44.5533C18.5029 46.9862 16.4656 48.4994 14.369 47.6587C13.2712 47.2137 12.7471 46.3236 12.4801 45.2258C11.9262 42.9611 11.3724 40.6864 10.8087 38.4217C10.3142 36.4338 8.95932 35.4548 7.21872 35.8009C5.60669 36.1273 4.74628 37.6602 5.12209 39.5986C6.05173 44.3358 6.96159 49.0828 7.95056 53.8102C8.89009 58.2803 11.1054 62.078 14.3295 65.2922C16.0404 67.0031 17.7414 68.7338 19.482 70.4249C20.2831 71.1963 20.6292 72.0864 20.6292 73.1842C20.6193 88.4045 20.6292 103.615 20.6094 118.835C20.6094 119.419 20.5303 120.042 20.3029 120.576C19.8776 121.585 19.0666 122.109 17.9392 122.03C16.881 121.951 16.1492 121.367 15.8624 120.358C15.7041 119.795 15.6942 119.181 15.6942 118.588C15.6942 104.05 15.6745 89.5122 15.714 74.9643C15.714 73.9259 15.3877 73.204 14.6657 72.482C12.5592 70.3755 10.4131 68.2986 8.50439 66.024C5.13198 61.9989 3.4705 57.1924 2.57054 52.0696C1.88814 48.2126 1.07718 44.3654 0.345343 40.5183C-0.34694 36.8888 0.968397 33.7241 3.8661 31.9835C6.79346 30.2231 10.2153 30.5692 13.1427 32.9329C13.2515 33.0219 13.38 33.0911 13.6767 33.2691C13.6767 32.7252 13.6767 32.3494 13.6767 31.9637C13.6767 26.7617 13.835 21.5498 13.6372 16.3478C13.4097 10.6612 18.5425 6.72503 23.6654 8.34695C23.7742 8.37662 23.9027 8.34695 24.0906 8.34695C24.1599 7.56566 24.1401 6.76459 24.3181 6.01297C25.0104 3.11527 26.8202 1.21644 29.6388 0.267023C29.7179 0.187905 29.975 0.0890078 30.2322 0C31.1816 0 32.1409 0 33.0903 0C33.298 0.0890078 33.5057 0.197795 33.7233 0.267023C36.8385 1.30545 38.6582 3.46141 39.2121 6.67558C39.311 7.2393 39.3011 7.82279 39.3406 8.40629C39.5681 8.37662 39.6868 8.37662 39.7956 8.34695C45.2943 6.98217 49.7447 10.4634 49.7546 16.1599C49.7546 17.5049 49.7546 18.8499 49.7546 20.2443C50.0117 20.1949 50.1699 20.1751 50.3183 20.1355C55.7675 18.8103 60.2179 22.2816 60.2377 27.8891C60.2377 30.4703 60.2377 33.0516 60.2377 35.6328C60.2377 36.3646 60.2377 37.0965 60.2377 37.8679C62.9178 37.3833 65.1529 37.9964 67.0418 39.6678C68.9703 41.3688 69.7022 43.6138 69.5934 45.9379H75.28C75.28 45.7006 75.28 45.2654 75.28 44.8303C75.28 38.7975 75.2701 32.7648 75.28 26.7221C75.2899 22.9442 77.8711 19.7696 81.5798 19.1762C82.9149 18.9587 84.3093 19.1466 85.7137 19.1466C86.2972 13.994 89.0762 10.9776 93.4475 11.0172C97.799 11.0567 100.499 14.0336 101.102 19.5026C101.29 19.4531 101.478 19.4136 101.656 19.374C107.036 18.0587 111.476 21.53 111.496 27.0683C111.496 28.4528 111.496 29.8275 111.496 31.2417C111.763 31.222 111.922 31.2417 112.08 31.2022C116.777 30.1242 120.278 32.1021 121.772 36.6811C121.801 36.78 121.91 36.8591 121.979 36.9481V64.3625H121.999Z" fill="#1F4960"/>
<path d="M110.784 106.977C110.784 111.141 110.784 115.315 110.784 119.478C110.784 120.685 110.23 121.555 109.093 121.931C108.104 122.257 107.075 122.049 106.561 121.14C106.136 120.388 105.928 119.429 105.908 118.558C105.829 115.621 105.879 112.684 105.879 109.747C105.879 105.108 105.879 100.46 105.879 95.8218C105.879 95.3076 105.879 94.7933 105.918 94.279C106.027 92.8252 107.085 91.7374 108.292 91.8066C109.745 91.8956 110.754 92.9439 110.774 94.4669C110.804 96.6526 110.774 98.8283 110.774 101.014C110.774 103.002 110.774 104.98 110.774 106.968L110.784 106.977Z" fill="#1F4960"/>
<path d="M105.93 83.5488C105.93 82.1741 107.067 81.0269 108.402 81.0466C109.619 81.0664 110.766 82.273 110.776 83.5389C110.786 84.8938 109.52 86.1003 108.135 86.041C106.939 85.9915 105.92 84.8443 105.93 83.5389V83.5488Z" fill="#1F4960"/>
</g>
<defs>
<clipPath id="clip0_431_632">
<rect width="122" height="122.079" fill="white"/>
</clipPath>
</defs>
</svg>
