<svg width="132" height="132" viewBox="0 0 132 132" fill="none" xmlns="http://www.w3.org/2000/svg">
<path d="M131.91 69.5909C131.394 71.8309 131.054 74.1524 130.293 76.311C129.505 78.5511 128.378 80.6961 127.25 82.8139C126.408 84.3888 124.887 84.7282 123.42 83.8865C122.211 83.1805 121.83 81.5921 122.727 80.1666C125.715 75.3743 126.748 70.1339 126.693 64.5677C126.625 57.1416 126.693 49.7019 126.666 42.2758C126.666 40.2259 125.647 38.8954 124.031 38.7461C121.993 38.556 120.648 39.8865 120.648 42.1537C120.635 47.0546 120.648 51.942 120.635 56.8429C120.635 58.6893 119.303 59.8433 117.565 59.6125C116.165 59.4224 115.337 58.3227 115.337 56.6393C115.337 47.747 115.337 38.8547 115.337 29.9624C115.337 27.3829 114.169 25.8217 112.267 25.876C110.392 25.9303 109.305 27.4236 109.305 29.9488C109.305 38.8411 109.305 47.7334 109.305 56.6257C109.305 58.282 108.545 59.3409 107.227 59.5989C105.488 59.9383 104.007 58.7164 104.007 56.8565C103.98 52.8244 104.007 48.7788 104.007 44.7467C104.007 36.7504 104.007 28.7677 104.007 20.7714C104.007 18.5177 102.785 17.2416 100.788 17.323C99.5245 17.3774 98.6687 18.0426 98.2748 19.183C98.0438 19.8482 98.0031 20.6085 98.0031 21.328C97.9895 32.1481 98.0031 42.9818 97.9895 53.8019C97.9895 55.5668 97.1065 56.6529 95.6394 56.7751C93.8598 56.9244 92.6916 55.7976 92.678 53.8698C92.678 45.7513 92.678 37.6328 92.678 29.5143C92.678 27.6409 91.9987 26.5412 90.5724 26.066C89.0373 25.5501 87.3665 26.3783 86.891 27.9395C86.7416 28.4283 86.6601 28.9442 86.6601 29.46C86.6601 40.158 86.6601 50.8559 86.6601 61.5538C86.6601 61.8525 86.7008 62.1376 86.7144 62.3005C88.331 62.3005 89.9339 62.0833 91.4418 62.3412C95.259 63.0201 97.9759 66.4412 97.9895 70.3104C97.9895 78.8633 98.0302 87.4026 97.9895 95.9556C97.9487 103.762 95.1232 110.496 89.8932 116.265C89.7166 116.455 89.5535 116.673 89.3498 116.822C86.3748 118.926 85.2473 121.75 85.845 125.348C86.008 126.352 85.8857 127.411 85.8586 128.443C85.8586 128.959 85.8178 129.475 85.6956 129.977C85.356 131.308 84.2284 132.081 82.9243 131.973C81.6202 131.864 80.6557 130.9 80.6286 129.488C80.5742 126.013 80.5471 122.524 80.6557 119.048C80.6829 118.342 81.2399 117.541 81.7425 116.971C83.6307 114.867 85.7635 112.953 87.5159 110.74C90.9935 106.368 92.6644 101.264 92.7051 95.6976C92.7866 87.4569 92.7323 79.2027 92.7187 70.9485C92.7187 69.1429 91.9172 67.9482 90.5316 67.5545C88.426 66.9707 86.6057 68.3962 86.5921 70.7177C86.565 75.7001 86.5921 80.6825 86.5786 85.6649C86.5786 87.1175 85.6684 88.1765 84.3371 88.3801C83.1824 88.5702 81.8919 87.7828 81.5251 86.6017C81.3757 86.1265 81.3893 85.5835 81.3893 85.0811C81.3893 76.406 81.3893 67.7309 81.3893 59.0423C81.3893 58.7436 81.3893 58.4449 81.3893 58.1462C81.3621 56.0555 80.2075 54.7115 78.4007 54.6708C76.5397 54.6301 75.2627 56.0012 75.2491 58.1191C75.2491 67.0114 75.2491 75.9037 75.2491 84.796C75.2491 87.1175 74.3661 88.3666 72.7088 88.4073C71.0244 88.448 70.0463 87.1175 70.0463 84.7689C70.0463 72.9985 70.0463 61.228 70.0463 49.4576C70.0463 46.9188 68.0766 45.3848 65.9166 46.1722C64.6397 46.6338 63.9197 47.7877 63.9197 49.4576C63.9197 55.3903 63.9197 61.3095 63.9197 67.2422C63.9197 73.3379 63.9197 79.4471 63.9197 85.5427C63.9197 87.2262 62.7514 88.4344 61.2572 88.3937C59.8172 88.353 58.744 87.1447 58.7169 85.5427C58.7169 85.244 58.7169 84.9454 58.7169 84.6467C58.7169 76.0123 58.7169 67.378 58.7169 58.7436C58.7169 58.3635 58.7305 57.9698 58.7169 57.5896C58.5946 55.9605 57.3856 54.7387 55.837 54.6572C54.2068 54.5757 52.862 55.7026 52.631 57.3724C52.5631 57.834 52.5903 58.3092 52.5903 58.7843C52.5903 68.8849 52.5903 78.9719 52.5903 89.0725C52.5903 90.5116 52.0197 91.5705 50.7428 92.195C49.5474 92.7788 48.3112 92.6702 47.3875 91.747C46.7897 91.1496 46.3686 90.2672 46.1377 89.439C45.4585 87.0497 44.9422 84.6196 44.3174 82.2166C43.7876 80.153 42.2933 79.0805 40.5001 79.4335C38.7206 79.7865 37.7017 81.402 38.0957 83.4656C39.1281 88.8553 40.0926 94.245 41.3152 99.5939C42.3476 104.169 44.7249 108.079 48.0667 111.392C49.9277 113.238 51.7616 115.111 53.6499 116.931C54.5057 117.759 54.8996 118.709 54.8861 119.904C54.8453 122.782 54.8861 125.66 54.8589 128.538C54.8589 129.054 54.8317 129.583 54.6959 130.059C54.3427 131.321 53.2423 132.041 51.9654 131.932C50.77 131.837 49.7647 130.982 49.6968 129.706C49.5745 127.18 49.5338 124.642 49.6017 122.117C49.6425 120.84 49.2213 119.972 48.3248 119.089C46.0698 116.863 43.774 114.636 41.7363 112.193C38.0414 107.767 36.2482 102.472 35.2565 96.8652C34.523 92.643 33.6264 88.4616 32.8385 84.253C32.1457 80.5603 33.6672 77.1392 36.7373 75.3064C39.8345 73.4465 43.6517 73.7587 46.5996 76.1209C46.7626 76.2567 46.912 76.406 47.238 76.6911C47.2652 76.1345 47.3059 75.7272 47.3059 75.3335C47.3059 69.618 47.3059 63.9025 47.3059 58.187C47.3059 52.0913 52.0469 48.3172 57.9561 49.6884C58.1192 49.7291 58.2958 49.7427 58.3773 49.7562C59.3146 45.955 60.2247 42.1808 59.9123 38.203C59.695 35.4742 59.9123 32.7047 59.8444 29.9624C59.79 27.9531 58.5131 26.6362 56.8015 26.6362C55.0491 26.6362 53.8401 28.0617 53.8265 30.1253C53.8265 33.8994 53.8265 37.6871 53.8265 41.4613C53.8265 42.751 53.2559 43.6742 52.0333 44.1629C50.933 44.6109 49.887 44.3258 49.2621 43.4434C48.8002 42.8053 48.5693 41.8821 48.5693 41.0676C48.515 35.7458 48.5421 30.4104 48.5421 25.0886C48.5421 22.5091 48.5693 19.9296 48.5421 17.3502C48.515 15.4496 47.5505 14.1598 46.0426 13.9426C44.0185 13.6439 42.5106 14.988 42.5106 17.1737C42.5106 25.9303 42.5106 34.7004 42.5106 43.457C42.5106 43.8371 42.5106 44.2308 42.5106 44.6109C42.4835 46.3758 41.3695 47.6384 39.8481 47.6384C38.313 47.6384 37.2263 46.4165 37.2263 44.6109C37.2263 32.8812 37.2263 21.1515 37.2127 9.43536C37.2127 8.79728 37.172 8.14563 37.0497 7.52113C36.7508 6.10923 35.4196 5.11817 34.0611 5.19963C32.6212 5.28109 31.3714 6.44863 31.2084 7.88769C31.154 8.30855 31.1948 8.74298 31.1948 9.17741C31.1948 20.7306 31.1948 32.2839 31.1948 43.8507C31.1948 44.2308 31.2084 44.6245 31.1948 45.0046C31.0861 46.498 29.9314 47.652 28.5322 47.652C27.1331 47.652 25.9648 46.5251 25.924 45.0046C25.8697 43.2397 25.8969 41.4884 25.8969 39.7235C25.8969 32.5011 25.8969 25.2922 25.8969 18.0697C25.8969 17.5538 25.8969 17.038 25.8154 16.5356C25.5165 14.7843 24.2803 13.8068 22.5687 13.929C21.0201 14.0376 19.8925 15.2731 19.8654 16.9701C19.8382 18.382 19.8654 19.8075 19.8654 21.2194C19.8654 30.1931 19.8654 39.1805 19.8654 48.1543C19.8654 50.788 17.6647 52.4307 15.3961 51.5076C14.2142 51.0324 13.6437 50.0685 13.3448 48.8738C12.7471 46.4165 12.1494 43.9728 11.5381 41.5156C11.0083 39.3706 9.5412 38.2981 7.65297 38.6918C5.91416 39.0447 4.97683 40.701 5.38436 42.7917C6.38961 47.9099 7.36769 53.0416 8.44086 58.1598C9.4597 62.9929 11.8506 67.0929 15.3418 70.5819C17.2028 72.4283 19.0367 74.3018 20.9114 76.1209C21.7672 76.9491 22.1476 77.913 22.1476 79.1077C22.1476 95.5619 22.1476 112.016 22.1204 128.47C22.1204 129.108 22.0389 129.774 21.7944 130.357C21.3461 131.443 20.4495 132.014 19.2405 131.919C18.0858 131.837 17.2979 131.213 16.9991 130.113C16.8225 129.502 16.8089 128.837 16.8089 128.199C16.8089 112.478 16.7953 96.7565 16.8225 81.0355C16.8225 79.9087 16.4693 79.1348 15.695 78.3474C13.4128 76.0666 11.0898 73.8266 9.02499 71.3558C5.38436 66.9978 3.57763 61.7982 2.59955 56.2728C1.85241 52.0913 0.983005 47.9506 0.195108 43.7828C-0.552036 39.8593 0.87433 36.4381 3.99875 34.5646C7.17751 32.664 10.8725 33.0305 14.0377 35.5828C14.1599 35.6779 14.2958 35.7458 14.6082 35.9494C14.6082 35.3656 14.6082 34.9583 14.6082 34.5375C14.6082 28.9034 14.7848 23.2694 14.5674 17.6624C14.3229 11.5125 19.879 7.24961 25.4214 9.0145C25.5301 9.05523 25.6795 9.0145 25.8833 9.0145C25.9648 8.17279 25.9376 7.30392 26.1278 6.48936C26.8749 3.36686 28.8311 1.3033 31.874 0.271521C32.0642 0.203641 32.3359 0.0950324 32.6212 0C33.6536 0 34.686 0 35.7184 0C35.9494 0.0950324 36.1667 0.217217 36.3976 0.285097C39.7666 1.39833 41.7363 3.73342 42.334 7.20889C42.4427 7.81981 42.4291 8.44431 42.4699 9.08238C42.7144 9.05523 42.8367 9.05523 42.9589 9.0145C48.9089 7.53471 53.7178 11.3089 53.7314 17.4588C53.7314 18.9114 53.7314 20.3641 53.7314 21.8846C54.0167 21.8303 54.1797 21.8031 54.3427 21.7624C60.2383 20.3234 65.0608 24.0839 65.0744 30.1388C65.0744 32.9355 65.0744 35.7186 65.0744 38.5153C65.0744 39.3027 65.0744 40.1037 65.0744 40.9318C67.9679 40.4023 70.3859 41.0676 72.4372 42.8868C74.5156 44.7331 75.3171 47.1496 75.1948 49.6612H81.3485C81.3485 49.4033 81.3485 48.9417 81.3485 48.4665C81.3485 41.9364 81.3485 35.4199 81.3485 28.8898C81.3485 24.8035 84.1605 21.3687 88.1679 20.7306C89.6079 20.4998 91.1158 20.6899 92.6372 20.6899C93.2757 15.1101 96.2643 11.8519 101.005 11.8926C105.705 11.9334 108.64 15.1509 109.292 21.07C109.496 21.0157 109.699 20.975 109.889 20.9207C115.717 19.4952 120.512 23.2558 120.54 29.2428C120.54 30.7362 120.54 32.2296 120.54 33.7637C120.825 33.7501 121.002 33.7637 121.165 33.7229C126.245 32.5554 130.035 34.7004 131.652 39.6557C131.692 39.7643 131.801 39.8457 131.883 39.9408V69.5773L131.91 69.5909Z" fill="#DA7C48"/>
<path d="M119.781 115.682C119.781 120.189 119.781 124.696 119.781 129.19C119.781 130.493 119.183 131.443 117.947 131.851C116.873 132.204 115.773 131.973 115.216 130.995C114.754 130.181 114.537 129.149 114.51 128.212C114.428 125.035 114.483 121.859 114.483 118.682C114.483 113.659 114.483 108.636 114.483 103.626C114.483 103.069 114.483 102.513 114.523 101.956C114.646 100.381 115.787 99.2137 117.091 99.2816C118.667 99.3767 119.753 100.517 119.781 102.16C119.808 104.522 119.781 106.884 119.781 109.233C119.781 111.378 119.781 113.523 119.781 115.668V115.682Z" fill="#DA7C48"/>
<path d="M114.523 90.3351C114.523 88.8553 115.746 87.6063 117.2 87.6335C118.517 87.6471 119.753 88.9504 119.767 90.3351C119.767 91.8013 118.409 93.1046 116.914 93.0503C115.624 92.996 114.523 91.7606 114.523 90.3487V90.3351Z" fill="#DA7C48"/>
</svg>
